<?xml version="1.0" encoding="utf-8"?>
<!-- Generator: Adobe Illustrator 25.0.0, SVG Export Plug-In . SVG Version: 6.00 Build 0)  -->
<svg version="1.1" id="Layer_1" xmlns="http://www.w3.org/2000/svg" xmlns:xlink="http://www.w3.org/1999/xlink" x="0px" y="0px"
	 viewBox="0 0 1920 1080" enable-background="new 0 0 1920 1080" xml:space="preserve">
<path fill="#ECECEC" stroke="#000000" stroke-width="3" stroke-linecap="round" stroke-linejoin="round" d="M1500.06,387.04
	l0.61-0.17l-0.35-0.61l-0.69-0.17l-0.35-0.96l-0.95,0.09l-0.61-0.17l-0.09-0.78l0.87-0.87l-0.43-0.95l0.17-0.52l1.21-1.21l0.61,0.26
	l0.26-0.26l-0.78-0.87l-1.21-0.78l-0.61-0.09l-0.17-0.43l-0.7-0.43l-1.21,0.08l-0.52-0.86l-0.95,0.17l-0.69-0.26l-0.26-0.78
	l-1.04-1.04l-0.96-0.43l-1.21,0.43l-0.87,1.04l-0.78,0.35l-0.6-0.26l-0.7-0.52l-0.78-0.18l-0.17-0.6l-0.61-0.78l-1.12,0.26
	l-0.26,0.34h-0.78l-1.56-0.26l-0.43-1.38l-0.7-0.52h-0.52l-1.04-0.69l-0.52-0.44h-1.99l-1.13,0.44l-0.26,0.34l-1.21,0.78l-0.87-0.17
	l-0.69,0.17l-0.78,0.95l-0.26,1.3l-0.69,0.26l-0.52-0.69l-0.26-0.95l-1.56,0.26l-0.43-0.61l-1.13-0.26v-0.17l1.99-1.56l0.96-0.61
	l0.17-0.52l-0.35-0.43l-1.04-0.69l0.87-1.04l1.39-0.09l0.17-1.04l0.43,0.26l0.7-0.69l0.77-0.52l0.7-0.7l-0.7-1.38l0.52-0.18
	l1.3-0.78h0.78l0.78-0.34l0.87-1.47l-0.17-1.04l-0.78-0.87l-1.39-2.08l0.09-1.21l-0.44-0.96l-0.08-0.6h-1.04l-0.26-0.96l1.38-2.85
	l-1.38,0.6l-0.52,0.52l-0.69,0.26l-2.69,0.17l-0.69,0.7l-0.87,0.43l-1.13,1.39l-0.17,0.52l-0.61,0.43l-1.82,0.78l-0.08-0.52
	l-0.52-0.52l0.26-0.61l0.78-0.43l0.08-0.69l-0.6-1.04l-0.44-1.13l-0.78-0.95l1.39-0.17l0.87-0.7l0.52-1.04l0.95-0.43l0.35-0.35
	l1.38-0.26l1.13-0.08l0.35-0.35l0.43-1.21l0.43-0.61l0.18-0.78l-0.52-0.87l-0.35-0.08l-0.52,0.6l-0.95,0.26l-0.61,0.87l-1.21,0.09
	l-0.52-0.35l-0.7-1.13l-0.26-0.6l-0.6-0.52l0.08-1.22l-1.04-1.81l-1.04-1.04l-0.6-0.96l-0.43-0.26l-0.7,0.18l-1.21,1.3l-0.61,0.34
	l-1.12,0.96l-2.26-0.26l-1.21,1.21h-0.35l-1.04,0.6l-0.43-0.69l-0.95,0.95l-0.09,0.44l-0.43,0.43l-0.78,0.09l-0.87,1.04l-1.21,0.69
	l-0.95-0.43l-0.35,0.69v0.87h-1.21l-0.26,0.26l0.26,0.95v1.73l-1.3-0.43l-0.35,0.61l-0.09,1.21l-0.95,1.73l-1.04-0.09l-0.26,0.18
	l-1.99-0.35l-1.21-0.6l-1.13,0.17l-0.43-0.35v-1.38h-2.17l-1.65-0.26l-0.69-0.87l-1.73-0.35l-1.04-0.6l0.17,1.3l-1.3-0.96
	l-1.38-0.08l-1.39-0.7h-0.78l-1.47,0.61l-0.09-0.52l0.09-0.95l-0.18-0.61l-0.69-0.87l-1.65-1.73l-1.04-0.78l-1.04-0.69l-0.43-0.09
	l-0.26,1.21l-0.17,0.44l-1.13,0.86l-0.08,0.87l-0.44,0.69l-0.69,0.35l-1.13,0.09l-1.9-0.35l-0.52,0.52l-1.22,0.69l-0.26,1.13
	l-0.34,0.26l-1.91,0.09l-0.86,1.04l-1.3,1.12l-0.87,1.47l-0.35,1.13v0.52l-0.43,0.61l-0.09,0.6l-0.52,0.52l-1.73,1.22l-1.04,1.04
	l-0.43,0.69l-1.04,0.43l0.17,0.7l-0.43,0.69l0.43,0.78l-0.95,0.87l-0.09,0.95l-0.26,0.6l-0.61,0.96h-0.95l-1.12-0.96l-0.61-0.08
	l-2.08,1.3l-1.3-0.7l-1.3,0.35l-1.39,0.61l-0.95,0.17l-2.42-0.17l-0.18-0.44l-0.69-0.34l-0.52,0.26l-0.17,0.78l-0.78-0.78
	l-1.04,0.78l-2.34,0.69l-0.18,0.78l-0.78,0.35l0.18,1.12l-0.52,0.78l-0.35,1.3l-1.39,0.87l-0.69,0.87l-0.69,0.43l0.26,0.43
	l1.21,0.87l-0.43,1.3l0.17,0.69l-0.87,0.78h-1.21l-0.86-0.26l-0.87,0.61h-0.69l-1.48,0.26l0.35,1.21l-0.95,1.13l-0.44-0.7
	l-0.69-0.34l-1.47,0.86l-0.52,1.04l-2.26,1.04v-0.78l-0.6-0.17l-0.52,0.61l-1.3,1.12l-0.95,0.44l-0.78,0.69l-0.52,1.82l0.95,0.52
	l1.39,1.9l-1.22,1.91l-0.86,1.13l-1.91,0.78l-0.61,0.69l-0.78,1.13l-0.43,0.17l-0.87-0.78l-0.69,0.09l-1.13,1.12l-0.26,0.09
	l-0.95-0.69l-0.86,0.26l-0.09,0.69l-2.17,0.52l-0.69-0.95l-0.52-1.56l-0.35-0.26l-1.64,0.17l-1.3,0.61l-1.04,0.95l-1.04,0.95
	l-0.87,0.7l-0.52,0.08l-1.56-0.43l-0.86,0.69l-0.35,0.69l-0.78,0.44l-0.26-0.35l-0.87,0.17l-0.6-0.52l-0.44-1.29l-0.34-0.18
	l-0.18-0.86l-0.69-0.09l-0.95,0.26l-0.78-0.09l-1.04-0.34l-0.43-0.26l-0.78-1.13l-1.82,0.09l-0.44-0.26h-0.69l-0.69,0.52l0.6,1.04
	l0.96-0.18l0.86,0.61l0.09,1.04l0.26,0.43l-0.26,0.35l-0.17,1.38l-0.96,0.78l-0.08,0.35l-0.7,0.69l-0.26,0.61l0.61,1.13l-0.52,0.52
	l1.04,1.47l0.43-0.09l0.26,0.96l0.7,0.52l0.34,0.52l1.04-0.7l0.61,0.44l0.09,0.52l1.29,0.08l0.52,0.26l1.04-0.26l0.52,0.09
	l0.61-0.43l1.47,0.43l0.78-0.09l0.44,0.35l2.34-0.61v0.7l0.17,0.6l0.43,0.18l0.09,0.77l0.43,0.44l-0.26,0.69l0.09,0.69l0.35,0.44
	l-0.09,0.6l0.61,0.52l1.12,0.61l0.09,0.52l-0.52,0.26l-0.95-0.26l-0.87,0.52l0.69,0.52l0.18,0.78l-0.44,1.13l-0.86,0.52l-0.09,0.6
	l0.35,0.52l-0.35,0.78l0.17,1.21l0.44,0.87h0.6l0.35,0.43l0.09,0.61l0.69,0.43v0.87l0.34,0.26l0.09,1.39l-0.26,1.3l-0.34,0.86
	l-1.22,0.7l-1.12-0.18l-0.96-0.17l-0.95-1.04l-1.65-0.95l-1.3,0.17l-0.6,1.21l-0.96,0.78l-2.16,1.3h-0.87l-0.6,0.26l-1.56-0.52
	l-1.04,0.52l-2.86,0.52l-0.44-0.08l-2.08-1.48h-0.17l-0.69,1.13l-1.3,0.78l-1.21-0.17l-0.96-0.7l-2.42-0.17l-1.48,0.09l-1.21-0.35
	l-1.04,1.3l-1.73-0.35l-2.95,0.35h-0.78l-1.99,0.17l-1.82-0.08l-0.17,0.26h-1.04l-0.61-0.44l-0.86,0.26l-0.61-0.6l-1.91-0.26
	l-3.29-2.43l-0.95-0.87l-0.35-0.08l-1.65,0.17l-0.26,0.69l-1.04,0.78l-0.6,0.09l-0.78-0.17l-1.13-0.09l-0.86,0.78l-0.44,0.95
	l0.18,1.13l-1.74,0.69l-2.16,0.69l-1.56-0.17l-1.3,0.35h-2.08l-0.78-0.44l-0.17,1.13l-1.48-0.43l-0.86,0.52l-0.7-0.7h-0.78
	l-0.69-0.52l-1.04-0.08l-0.35,0.69l-1.3-0.26l0.87-0.69l0.35-0.78l-0.44-0.43l-0.34,0.26l-0.52-0.44l-1.3-0.43l-1.13-0.52h-0.52
	l-0.43,0.52l-1.13-0.09l-0.26-0.95l-1.73-0.26l-0.17-0.69h-0.78l-0.87,0.78l-0.26-0.44l-0.95,0.61l-1.04,0.61l-0.52-0.18l-1.39,0.44
	l-0.43-0.44l-1.3,0.35l-0.87-0.87l0.09-0.78l-0.43-0.52l-0.09-0.69l-1.13-0.17l-0.08-0.61l-0.52-0.61l-1.3,0.61l-0.61-0.17
	l-0.61-0.44l0.35-0.52l-0.26-0.78l-1.04-0.6l-0.52,0.6l-0.09,0.52l-0.52,0.18l-0.08-1.82l0.26-0.87l-0.26-2.34l-1.3-0.34l-0.78-0.61
	h-0.43l-0.96-0.43l0.18-0.78l0.78-0.26l0.52-1.3v-0.96l0.95-0.52l1.12,0.18l0.78-0.52l0.35-1.04l0.35-0.7l-0.96-0.34l-0.34-0.96
	l-0.61-0.69l-0.61,0.26l-0.86-0.87l-0.43-1.38l-0.26-0.35v-1.3l0.08-1.12l-0.34-0.26l-0.26-0.96l0.52-0.34l0.6-0.87l0.18-1.3
	l0.34-0.09l0.69-0.86v-1.04l0.52-1.3l-0.34-1.3l0.08-1.3l0.78-0.69v-1.91l-0.69-1.04l-0.61-0.17l0.09-2l-0.35-0.86l-0.86-0.52
	l-0.52-0.61l-0.87-0.78l-1.99-0.17l-0.52,0.17l-0.87-1.04l-0.52-0.86l-0.34,0.08l0.26,0.78l-1.3,0.61l-0.61,0.09v0.6l-0.61,0.95
	l-0.95-0.43l-0.52,0.17l-0.61,0.87l-1.03,0.35l-0.78,0.86l-0.35,0.18l-0.78-0.35h-0.78l-0.95,0.61l-0.7,0.08l-0.26,0.26l-0.86,0.35
	l-0.26-0.52l-0.87-0.09l-0.26,0.7l-0.69,0.08l-0.96-0.69l-0.52,0.43l0.18,0.44l-0.44,0.86l0.44,1.04l0.69,0.18l0.87,0.69l0.52,0.09
	l0.17,0.52l-0.52,0.95l0.35,0.61l-0.44,0.52l-0.08,0.95l-0.61,0.26l-0.26,1.21l0.17,0.43l-0.34,0.87l-0.7,0.61l-0.17,1.21l-0.6,0.43
	l-0.52,0.87l-0.44,1.04v0.95l-0.43,0.35l-0.09,0.78l0.35,0.35l0.69,1.21l-0.86,0.6l-0.26,1.39l0.52,0.52l0.26,0.69l-0.44,0.35
	l-0.6,1.3l-0.09,1.21l-0.43,0.96v0.69l-0.26,1.91l-0.44,0.34v0.87l0.61,0.26l0.09,0.69l0.69,1.3l1.3,0.26l0.17,0.69l0.87,0.7
	l0.09,1.21l0.77,1.04l-0.25,0.69l1.03,1.04l-0.17,1.04l0.61,2.17l-0.18,1.73l-0.43,0.69l-0.09,1.74l-0.69,0.69v0.61l-0.6,1.3
	l-0.44,0.17l-0.08,0.69v0.18h-0.01l-0.26,0.6l0.26,1.65l-0.26,0.95l-0.43,0.61l-1.56,1.3l0.09,0.52l-0.61,0.17l-0.52-0.35v-0.69
	l-0.78-0.17l-0.95-0.7l-0.26-0.95l-0.43-0.35l-0.26-0.69l-1.22,0.44l0.09,0.51l-0.43,0.44l-1.65-1.04l-0.43,0.69l-0.18,0.87
	l-0.52,0.43h-0.6l-0.7-0.69l-0.95-0.26v0.69l-0.78,0.35v0.34l-1.21,0.18l-0.69-0.09l-1.04-0.43l-0.18-0.44l-0.86-0.43l-1.48-0.35
	l-1.12,0.61l-1.22,0.17l-0.6,0.35l-0.35,0.61l0.09,0.95l-0.52,0.43l-0.87-0.69l-1.38-0.17v-1.04l-0.61-0.35h-1.73l-0.7,0.35
	l-0.69-0.35l-1.39-1.13l-0.34-2.42l-0.26-0.61v-1.47l-0.78-0.09l-0.09,0.7l-0.78,1.12l-1.21,0.44l-0.44-0.09l-0.86,0.17l-0.09,0.96
	h-1.04l0.09,0.69l-0.69,0.43l-0.35-0.09l-0.78,0.61l-1.91-0.69l-0.52,0.43l-0.17,0.61l-0.61,0.08l-0.78-0.34l-0.08-0.44l-1.91-0.6
	l-0.17-0.43l-1.82-0.7l-0.69-1.21l-1.3-0.09l-1.3-0.86l-1.74-0.61l-0.08-0.35l-1.56-0.34l0.08-0.35l-1.04-0.09l-0.43,0.18
	l-1.21-0.09l-0.61,0.78h-1.04l-0.08-0.69l-0.61-0.09l-0.52,0.26l-0.52-0.69h-0.61l-1.3-0.7l-0.08-0.17l-1.22-0.35l-0.86,0.44
	l-0.7-0.18l-0.6,0.35v0.61l-0.87,0.6l-1.04,0.52l-0.95,0.87l-0.26-1.3l-0.61-0.09l-0.34,0.26l-0.52-0.69l-0.96-0.17l-0.69-0.35
	l-0.69-1.13v-0.86l0.34-3.12l-0.34-0.87l-1.22-0.78l-1.12-0.26l-0.61-0.69l-0.43,0.52l-1.22,0.52l-0.69,0.09l-0.69,0.86h-0.7v0.52
	l-1.29,0.52l-0.61-0.26l-0.69-0.08l-1.04,1.03h-0.52l-0.7,0.61l-0.43-0.26l-1.73-0.17l-0.78-0.26l-0.61,0.17l-0.43-0.34l-0.09-0.52
	l-0.52-1.04l0.52-0.87l-0.17-0.95l-1.65,0.08l-0.69-0.17l-0.61,0.43l-1.38,0.35l-0.44-0.35l0.44-1.04l-1.13-0.08l-0.17-0.61
	l-0.87-0.17l0.26-0.78l-0.52-0.61l-0.95-0.35l-0.52,0.09l-1.56-0.69l-0.09-0.7l-1.13-0.34l-0.69,0.78l-0.61-0.7l-0.51,0.44
	l-1.65-0.78l-1.73-0.7l0.17-0.95l0.52-0.35l0.35-0.51l0.17-1.39l-0.17-0.87l0.34-1.73l-1.38-2.77l-0.61-1.04l-1.65-0.35l-2.34-0.35
	l-0.52,0.09l-0.78-0.52l-1.47,0.09l-3.03-0.52l-0.43-0.61l-0.09-0.86l-0.52-0.78l-0.69-0.18l-0.7,0.44l-0.08-0.87l-1.04-0.17
	l-0.61-0.35v-1.04l-0.61,0.17l-0.6-0.34l-0.44,1.04l-0.78,0.34l-0.43,1.22l-0.78,0.17l-1.04-0.17l-1.38,0.08l-0.44-0.26l-1.82,0.7
	l0.18,1.21l0.86,0.08v0.44l-0.43,0.6l-0.95,0.26l-0.78-0.69l-6.41-3.29l-6.68-0.35l0.44,0.78l-0.61,0.52l0.69,1.21l-0.6,0.52
	l0.08,0.44l-1.03,1.21l-0.61,0.26l-1.13-0.09l-0.86-1.04l0.17-0.6l-1.82-1.39l-0.61-0.95l-0.69-0.09l-3.9,0.26l-2.34-0.6l-0.78-1.13
	l-1.73,0.09l-1.04-0.09l-0.95,0.17l-2-0.26l0.44-0.6l-0.35-0.87l0.52-1.39l-0.69-0.95l0.17-0.78l-0.69-0.69l0.08-0.87l-0.34-0.95
	h-1.22l-1.38,0.43l-0.43-0.09l-1.82,0.7l-0.78-0.18l-1.3,0.44l-0.7-0.09l-1.38-0.78l-1.04-1.3l-1.91-1.04l-1.47-1.21l-0.61-0.35
	l-0.69-0.78l-1.65-0.78l-0.86,0.09l-0.96-1.04l-0.6-0.95l-2.34-0.18h-0.7l-1.3,1.82l0.09,0.52l-0.78,0.18l-0.78-0.52l-1.21-0.96
	l-0.87-0.17l-3.03-2.77l-1.73-0.26l-2.86-1.91l-1.99-1.12l0.17-1.13l-1.04-0.78l-0.09-0.69l-1.04-0.44l-1.12-0.08l-0.09,1.12
	l-1.13,0.09l-0.43,0.26l0.09-2.17l-1.22-1.3l-1.38-1.82v-1.12l-0.7-1.22l-3.81-0.86l-1.04-0.87l-0.34-0.52l-0.61-0.34l-0.43-0.61
	l-0.61,0.69l-1.04-0.69l-1.13-0.35l-0.08-0.69l0.17-0.43l-0.95-0.35l-0.61,0.43l-1.21-0.86l-0.87-0.26l0.18-0.44l-0.61-0.26
	l-0.09-0.52l-0.86-0.26l-0.7,0.18l-0.78-0.61l-0.34-0.61l0.08-0.52l-0.34-0.78l-0.52,0.26l-1.13-0.17l-0.17-0.43l-0.78-0.26
	l0.26-0.61l-0.61-0.35l-0.87-0.08l-1.04,0.86l0.52,3.04l-0.43,0.26l-1.04-0.78l-0.35-0.96l-0.69-0.52l-0.69-0.17l-1.21,0.35
	l-0.35-0.52l-1.04-0.7l-0.26-1.12l-0.69-0.44l-0.44,0.09l-0.69-0.69l0.26-0.43l-0.43-0.52L992,362l-1.38-0.86l-1.56-1.56l-1.3,0.08
	l-0.09-0.17l-0.17-0.26l-0.18-2.69l1.13-1.99l0.61-0.17l0.26-0.87l0.08-1.82l0.44-1.38l1.21-1.22l0.69,0.52l0.7,0.09l0.69-0.61
	l0.52-0.26l-0.43-0.69v-0.69l-0.52-0.61l1.04-0.09l0.52,0.35l0.34-3.03l0.35-0.52v-0.52l-0.61-0.26l-0.78-1.39l0.18-0.95l-1.04-0.61
	l0.17-1.21l1.65-0.26l-0.44-0.61l0.26-0.52l1.3-0.78l0.52-0.78l-0.52-0.26l0.26-0.52l0.87-0.17l0.86-1.13l-0.08-0.6l0.52-0.61
	l-0.18-0.69l-0.77-0.52l-0.18-0.35l-0.6-2.16l0.69-0.35l0.6-1.47l1.65-0.35l0.87,0.26l0.43-0.95l0.43-0.09l0.96-0.95l0.08-0.61
	l0.44-0.78l0.08-0.95l0.87-1.22l0.95-0.17l0.35,0.26l0.87-0.09l1.3-1.47l0.52,0.09l0.6-0.95l0.09-0.78l0.52-0.26l0.78-1.13
	l0.43-0.35l0.69-0.08v-0.44l1.04-0.6l-0.52-1.22l1.48-1.9l0.52-0.44l1.38-0.08l0.35-0.26l0.87,0.34l-0.26-0.86l-0.44-0.26
	l-2.34-0.61l-0.95-0.43l-1.13-0.26l-1.04-0.43l-1.12-0.96l-0.35-0.95l-0.86-0.95l-0.96-0.52l-1.12-0.96h-0.35l-1.65-1.21l-0.78-0.26
	l-0.34,0.78l-0.78,0.17l-0.78-0.34l-0.52-0.61l-0.87-0.17l-0.95-0.35l-0.69-0.95l-0.96,0.17l-1.56-0.95l-0.26-0.44l-0.86-0.26
	l-1.13,0.35l-0.87-0.61v-1.12l-0.34-0.43l0.34-0.61l-0.86-0.87l0.08-0.34l1.04-0.61l0.52-1.47l-0.43-0.87l-0.43,0.35l-0.52-0.26
	l-0.18-0.78l-0.69-0.87h-0.61l-0.08,0.52l-1.04,0.61l-0.87-0.7l-0.09-0.69l-0.78-0.87h-0.51l-0.96-0.78l-1.56-0.86h-0.78l-0.52-1.04
	l-0.52-0.09l-0.69-1.9l-0.78-0.18l-0.61,0.26l-1.47-0.52l-0.43-0.43l-0.61,0.52l-0.78,0.26l-1.3-0.09l-0.17,0.52l-0.69,0.18
	l-1.22,0.69l-1.56-1.04l0.18-0.52l-0.96-1.13l-0.26-0.6l-2.42,0.08l-0.26-1.38l-0.44-0.18l-0.26-1.21l-1.64-0.43l-0.78-0.61
	l-0.52-1.13l0.17-0.52l-0.78-1.73l-0.78-0.26v-0.52l0.35-0.95l-0.78-0.87v-0.6l-1.3-1.22l-0.35-0.86l-1.04-1.39l-1.56-0.69
	l-0.6-0.52l-0.61,0.52l-0.09,1.04l-0.78,0.95l-0.43,1.13l-0.35,0.43l-1.47,0.61l-0.43,2.51l-0.26,0.26l-0.78-0.43l-0.43-1.04
	l-0.52-0.78l-0.61-0.26l0.35-0.78l-0.35-0.96l-1.56-0.78l0.52-0.52l0.09-1.21l-1.56-1.3l-0.78,0.09l-0.26-1.13l0.43-0.69l0.78-0.26
	l0.61-0.61l0.78-0.34l0.78-0.87l0.17-0.95l-1.3-1.13l-0.17-1.04l-0.87,0.17l-0.43-0.26l-0.35-1.3l-0.35-0.52l0.44-0.6l-0.7-0.26
	l-0.34-0.78l0.08-0.78l0.78-0.7l0.18-1.73l0.17-0.95l0.43-0.43l0.44-1.39l0.34-1.21l-1.04-0.18l-1.38-1.47l-0.09-0.43l-1.04-1.04
	l-0.17-0.7l-1.47-0.52l-0.26-0.86l-0.44-0.35l0.61-1.04v-1.12l-1.47-1.04h-0.61l-1.21,0.26l-1.3-0.18l0.78-1.04l0.08-0.52
	l-0.17-1.56l0.17-0.78l0.78-0.69l0.09-0.43l0.61-0.96l-0.44-0.26h-0.69l-0.52-0.78l-0.69-0.34l0.26-1.13l-0.44-0.69l-0.69-0.09
	l-0.26-0.26v-0.26l-0.17,0.18l-0.61,0.43l-1.39,1.3l-0.08-0.09l-0.18-0.26l-0.03-0.03l-0.23,0.2l-0.95-1.12l0.61-0.69v-1.74
	l1.04-0.26l1.64-1.3l-0.52-0.52l-0.26-1.21l0.18-0.95l0.26-0.7l-0.18-0.52l0.09-0.95h0.26l0.26,0.09l-0.09,0.95l0.26,0.52
	l-0.34,0.69l-0.09,0.96l0.17,1.3l0.52,0.43l-2.08,1.56l-0.6,0.09l0.08,1.64l-0.69,0.87l0.66,0.66l1.16-1.01l0.78-0.6l0.52,0.08
	l0.17-0.17h0.61l0.09-0.61l0.43-0.78l0.87-0.52l0.78,0.18l1.04-0.96l1.12-0.34l0.52,0.08l1.04,0.61l0.43-0.35l0.44-1.21l0.43-0.52
	h1.39l1.56-1.04l-0.18,1.13l0.87,1.3l0.09,1.04l-0.52,0.52v0.52l0.43,0.95l0.43,1.73l0.44,0.61l0.17,0.86l0.78-0.08l1.47,1.82
	l1.65,0.86l0.52,0.87l0.34,0.09l0.7-1.39l1.38-0.43l1.13,0.08l0.69-0.17l0.09-0.78l0.52-0.09l0.17-0.6l-0.52-1.22l0.52-0.43h1.39
	l1.39-0.95l0.26-0.87h0.78l0.86-1.04l0.44-1.04l0.69,0.09l1.56,0.69l0.08,1.3l0.44,0.26l0.95-0.17l0.61-1.13v-0.34l1.47-1.22
	l1.47-2.25l0.26-0.17l1.56-2.08l-0.34-0.96l-0.44-0.52l-0.95-0.34l-1.56-2.34l-1.04-1.3l-0.52-1.04l-1.3-1.56l-1.04-0.09v-0.69
	l-0.52-0.17l-0.52-0.52l0.43-0.52l0.87-0.52v-0.7l-0.52-1.04l0.35-1.03l0.86-1.65l0.7-1.04l0.34-1.21l0.09-1.13l-2.34-0.87
	l-1.3,0.26h-0.6l-1.13-0.43l-0.69-0.43l-1.22,0.26h-2.94l-1.48-0.7l-1.04-0.69h-0.95l-0.61-1.39l-0.6-0.43v-0.78l-0.61-1.04v-1.64
	l0.35-1.04l-0.43-1.91l-0.35-0.61v-1.47l0.17-0.43l1.65,0.69h0.6l0.61-0.43l1.39-0.09l1.21,0.52l-0.52-1.56l0.09-0.69l-0.26-0.44
	l-0.61,0.44l-0.78-0.35l-0.52-0.69l0.69-1.13v-0.43l0.78-0.17l-0.26-0.52l-0.52,0.08l-0.69-0.34l-0.43-0.78l-1.56-3.21v-0.52
	l-0.87-1.82l-0.52-0.61l0.96-1.81l2.51-1.04l0.69,0.6l1.47,0.52l1.13-0.17l0.43-0.78v-0.61l0.87-0.34l0.61,0.78h1.47l0.69,0.43
	l1.04-0.17l2.08,0.34l0.69,0.26l0.35,0.43l0.69-0.25l0.09-0.44l-0.69-0.78l0.17-0.86l0.43-0.52l0.78-0.18l1.04-1.3l-0.17-0.86
	l0.52-1.65l0.35-0.26l0.78,0.26l0.95-0.78l0.26-0.52l0.17-1.39l-0.95-1.81l0.09-0.96l-0.26-1.04l0.17-0.78l-0.95-0.34v-0.96
	l-0.61-1.04l0.87-0.08l1.3-0.44l0.78-0.08l1.3,0.08l0.86,0.35h2.6l0.87-0.26l0.52-0.52v-0.78l-1.65-1.47l0.35-0.7l0.52-0.08
	l-0.09-0.78l-0.43-0.52l0.95-0.78h0.43l0.18-0.61l1.04-1.04h1.73l0.78,0.35l1.56-0.52l0.78-0.17l1.21-0.44l0.26-0.26l-0.09-3.29
	l0.44-1.47l0.69-0.61l1.3-2.86l0.61-1.56l0.43-2.6l-0.26-3.03l0.17-0.78l1.13-1.56l0.26-0.69l0.17-1.73l0.96-2.08l0.52-2.17
	l-0.09-1.73l0.43-0.7l0.96-0.26l-0.26-1.12l-0.26-1.99l-0.61-2l-0.61-0.52l-1.38-0.86l-3.3-1.13l-0.52-0.87l-0.17-0.86l-0.78-0.7
	l-0.52-1.56l-1.04-1.64l-1.12-0.35l-1.13,0.44l-0.87,0.6l-0.86,1.13l-1.04-0.18l-1.3-0.43h-1.3l-0.87-0.17l-0.61-0.61l-1.38-0.6
	h-0.35l-1.64-0.7l-0.78-0.08l-1.65-1.04l-1.56-0.09l-0.95-0.26l-0.52-0.61l-0.52-2.34l-0.7-0.43h-2.16l-1.73,0.09l-0.61,0.34
	l-0.69,1.13l0.17,2.17l-1.47,1.64l-0.78,0.26l-1.65-0.43h-1.21l-1.91-1.65l-0.34,0.44l-3.3,0.86l-1.38-0.08l-0.26-0.35h-1.74
	l-0.78,0.43h-0.95l-1.04,1.3l-1.38,0.61l-1.3,1.04l-0.61,0.17l-1.65-0.17l-0.52-0.26l-0.69,0.08l-0.61,1.3l-0.52,0.44l-1.21,0.43
	h-1.04l-0.69-0.17l-0.35,0.34l0.09,1.74l-0.44,0.69l-0.43,0.09l-1.3-0.78v0.78l-0.34,0.86l-0.61,0.35l-0.43,1.56l0.17,0.61
	l-0.78,0.6l-0.43-0.43l-0.7-0.26l-0.43,0.26l-0.95-1.39l-1.65,0.26l-0.61-0.78l-0.08,1.13l-1.04,1.99l0.95,0.61l0.17,0.86
	l-1.56-0.52l-0.34,0.78l-0.78-0.69l-0.44,0.26l-1.12-1.13l-0.43-0.08l-0.7,0.69h-0.52l-1.3-1.04l-0.17,1.73l-1.13-0.08l-0.52,0.26
	l-0.52-0.7l-1.04,0.78l-1.3-0.69l-0.86,0.26l-0.7-0.35l-1.21,0.44l-0.78,0.6l-1.04-0.52l-1.12-0.08l-0.26-0.52h-0.61l-0.09-0.7
	l-0.69-0.77l1.13-0.61l0.95,0.09l0.61,0.78l0.69,0.34l1.56-0.6l-0.69-0.44l-0.18-0.43l0.18-0.87l-0.26-0.43l-0.87-0.69l0.35-0.44
	v-0.69l-0.44-0.69h-0.69l-0.52-1.13l-0.69-0.87l-0.96-0.17l-0.34,0.78l-0.87-0.43l-1.73-0.09l-0.09-0.61l-1.56-0.08l-0.09-1.22
	l-0.69-0.08l-0.78-1.13l-1.21,0.09l-0.69,0.6l-1.48,0.18l-1.04-0.26h-0.95l-1.21-0.61l-1.13-1.21l-0.78-0.09l-0.95-0.78l-0.52-1.56
	l-0.69-0.69l-1.04-1.3l0.6-0.69l0.7-1.22l0.51-0.43l0.78-0.09l-0.34-0.78l-0.52-0.6l-1.91-1.04l-0.26-1.47l-1.21-1.13l-0.69-0.95
	l-1.39,0.6l-0.95-0.17l-0.44-0.69l-1.99-0.78l-1.04-1.3l0.09-0.78l-0.44-0.78l-0.17-0.78l-0.86-0.35l-0.52-0.69l-1.13-0.87h-0.61
	l-1.12,0.52h-0.96l-1.12-0.95l-1.3-0.61l-2.78-3.12l-1.55-0.43h-1.39l-1.65-0.52l-2.51-1.73h-0.43l-1.48-0.78l-0.78-0.61l-2.16-4.07
	l-1.56-1.99l-2.43-1.39l-0.6-0.09l-1.13-0.52l-0.61-0.95l-0.17-1.47l-0.26-0.61h-0.87l-0.08-1.39l0.43-0.43v-0.78l-0.78-0.43
	l-0.78,0.34l-0.69-0.78l-0.18-0.69v-1.9l-1.12-0.18l-0.52,0.26l-0.95-0.08l-0.78,0.43l-0.7,0.09l-0.26,0.69l-1.38,1.9l-1.13,0.7
	l-0.78,0.17l-0.87-0.78l-1.21-0.43l-0.26,0.43l-0.69,0.26l-2.25,1.47l-2-2.94l-0.08-1.04h-1.22l-0.78-0.17l-0.6,0.69l-0.7-0.61
	l-0.26-1.38l-0.78-0.52l-1.04,0.78h-0.52l-1.38,0.43l-0.52,3.46h-0.52l-0.78-1.3h-1.13l-0.52-0.25l-1.38,0.17l-0.7,0.78l-1.12,0.34
	l-1.48,1.56l-1.12,0.52l-0.52,0.61l-0.96-0.35l-1.73-0.34l-0.34,0.17l-0.52,2.25l-0.78,0.26l-0.87-0.08l-0.95,1.12l-0.87-0.78
	l-0.78,0.09l-0.87-0.61l-0.69-1.12l-0.43-0.26l-0.78,0.08l-0.35-0.43l-1.47-0.52l-0.35,0.61l-0.6-0.44l-0.61,0.09l-0.87-0.43
	l-0.34,0.34l-0.96-0.6l-0.69-0.09l-0.35,1.13l0.61,0.43l0.61,0.87l0.08,0.6l1.13,0.26l0.43,0.44l0.96,0.08l0.69,0.87l1.04,0.17
	l0.78,1.13l0.34,0.78l-0.17,0.95l-1.04,0.26l-1.64-0.69l-0.78,0.61l-1.74-0.35l-0.52,0.86l-1.64-0.34l-0.35,0.26l-1.04-0.35
	l-0.61-0.6l-1.56-0.18l-0.52,0.18l-0.6-0.44l-0.69-0.08l-1.04-0.61l-0.87,0.52h-1.13l-0.26,0.61l-0.52-0.09l-1.12,0.35h-1.56
	l-0.52,0.34l-0.78-0.08l-0.26-0.61l-1.22,0.43l-0.78,0.69l-1.38,0.26l0.26,0.52l-0.09,1.13l0.61,1.04l-1.13,1.65l-0.52,0.95
	l-1.04,0.35l-0.6,0.52l-0.26,0.6l0.08,1.39l-1.21-0.26l-0.78,0.09l-1.47,0.95l0.34,0.52l-0.08,1.21l-0.61,0.69h-0.61l-0.69,0.7
	l-1.3,1.56l-0.78,0.17l-1.04,0.95l-0.69,0.09l-0.35,0.52h-0.52l-0.86-0.52l-1.22,0.52l-0.26,1.21l-0.78,0.7l-0.26,1.12l0.7,1.13
	l-0.78,0.61l-0.44,0.95l-0.08,1.21l0.6,0.61l1.04,0.26l0.35,0.86l-0.43,0.26l-0.26,0.87h-0.52l-0.18,1.04l-0.6,0.52v1.13l0.69,0.52
	h0.43l0.96,1.3l1.38,0.26l0.52,0.69l0.87,0.52l0.87-0.78l0.6-0.17l0.69,0.52l0.96-0.44v-0.43l0.69-0.26l0.35-0.43l0.52,0.34
	l1.47-0.08l0.09,0.95l0.26,0.26h1.38l0.61-0.43l0.69-0.18l0.61,0.35l0.95-0.35l0.52-0.78h0.52l1.04,1.13l0.78,0.61l-0.52,1.64
	l0.09,0.87l-0.09,1.73l0.61,0.35l0.95,0.86l0.95,0.61l0.7,0.78l1.82,1.21l1.9,0.44l1.04,1.38l2.43-0.43l0.52,0.43l0.95-0.17
	l0.69,0.52h0.7l1.73-0.52l0.95,0.78l1.39-0.17l1.04,0.95l0.95,0.09v0.95l0.26,1.47l-0.95,0.43l-0.87,0.87l-0.78,1.47l-0.26,0.87v1.3
	l0.78,1.39l-0.34,1.99l0.43,0.43l0.61-0.17l0.86-0.78h0.96l1.12,0.52l0.52,0.69l1.56-0.09l1.13,1.39l1.21-0.35l0.26,0.7l0.61,0.52
	l0.6,0.17l0.87-0.35l1.3,1.22l0.35,0.26l-0.18,0.34l-1.04,0.26l-0.78,1.74l0.87,0.52l0.17,0.78l-1.21,0.78l0.35,1.99l-1.04,0.78
	l0.08,0.69l-0.69,0.69l-1.39,0.52l-0.17,0.7l-0.78,0.34l-0.26,0.52l-0.78-0.08l-1.73,0.17l-0.61,0.78l-1.47-0.09l-1.21,0.96
	l-0.87,1.9h-0.26l-0.87,1.74l0.96,0.6l-1.13,1.65l0.09,0.69l-0.35,0.78h-0.35l-0.6-0.69l-1.91-0.26l-0.52,0.6l-2.25-0.17l-0.52,0.61
	v0.95l-0.35,0.43l0.09,1.22l-0.35,0.78l0.09,1.21l-0.43,1.56l-0.44,0.35l0.18,0.86l0.78,0.26l0.52,1.48l0.78,1.64l0.17,1.13
	l0.35,0.17v1.82l0.17,1.3l0.09,2.17l0.34,0.69l0.18,2.17l1.03,2.51l0.87,0.69l0.35,0.87l-0.52,1.3l-0.44,2.08v0.52l1.04,0.95
	l0.09,1.21l-0.17,0.7l-0.87,0.69l0.17,0.95l-0.17,0.87l0.78,0.69l0.95,1.04l-0.08,1.21l0.43,0.44l-0.78,0.52l-0.26,0.95l0.87,0.95
	l-1.13,0.7l0.09,0.78l-0.87,1.04l-0.09,0.86l0.18,0.87l0.69,0.78v0.52l0.43,0.52l-0.17,0.43l0.26,0.95l0.61,0.52v0.52l0.95,0.44
	l-0.09,1.38l-0.86,1.13v1.39l0.17,0.43l0.52,0.09l1.3-0.09l1.21,0.69l0.18,0.87l1.47,1.64l-0.35,0.7l0.87,0.17l0.43-1.21l2.25,0.08
	l0.78,0.7l0.96-0.09l0.34,0.69l0.78,0.26l-0.26,0.87l0.78,0.17h1.13l0.17,0.78l1.91,0.44l1.47,0.34l0.87,0.61l0.43,0.87l1.13,0.17
	l1.47,0.61l-0.09,0.6l0.87,1.04l0.87,0.52l0.78,0.09l0.52-0.69l1.47-0.26l1.56,1.38l1.13,0.09l0.34-0.52l0.96,0.43l0.86-0.35
	l0.52-0.77l-0.09-0.78l0.61-0.96l1.56-0.08l-0.17,0.69l-0.44,0.78l-0.43,1.47l-0.35,0.69l-0.26,1.04l0.35,0.87l0.95,0.61l-1.21,0.86
	l-0.09,0.61l-0.43,0.35l0.43,0.52l0.09,1.04l0.26,0.69l0.87,0.61l-0.35,0.69l0.17,0.69l0.7-0.08l0.08,0.43l1.22,0.09l0.52-0.18
	l0.78,0.18l0.6-0.61l0.96,0.17h0.86l0.52,0.78l1.22-0.17l0.69,0.6h1.12l0.61-0.69l0.09-0.6l0.43-0.09l0.52,0.43h0.52l0.61,0.35
	l0.52-0.26l0.43,0.95l0.26,1.47l0.95-0.52l0.78-0.08l0.35,0.26l-0.26,0.52l1.3,0.6l0.61-0.17v0.78l0.86-0.09l0.09,0.44l0.87,0.69
	l0.1-0.15l-0.02-0.02l0.09-0.09v-0.09l0.17-0.08l0.3,0.14l0.22-0.14l1.56,0.69h0.61l0.1,0.03l0.16-0.03h0.08l1.13-0.43l-0.02,0.18
	l0.02-0.01l0.35-0.17h0.17l-0.17,0.69l0.69,0.26v0.88l0.26-0.45l0.26-1.47l0.61-0.69l1.38-0.7l1.65-0.26l1.13-0.43l0.77-0.61
	l1.04-2.08l0.96,0.09l0.69-0.43l0.69-0.78l0.35-1.04l1.04-1.3l-0.09,0.61l-0.26,0.43l-0.05,0.07l-0.21,0.28l-0.34,0.95l-0.61,0.78
	l-0.78,0.43l-1.04,0.18l-0.95,1.81l-0.78,0.61l-1.13,0.43l-1.64,0.26l-0.7,0.26l-1.12,0.87l-0.35,1.73l-0.35,0.61l-0.34,0.09
	l-0.09-0.18v-0.07l-0.09,0.16v0.09l-0.43-0.35v-0.78l-0.61-0.26l0.07-0.51l-1.19,0.34l-0.16-0.06l-0.28,0.06l-1.12-0.18l-0.96-0.34
	l-0.08-0.09l-0.05-0.03l-0.04,0.03h-0.43l-0.07,0.11l0.41,0.5l0.09,1.21l0.78,0.69l-0.26,0.35l0.17,0.69l-0.52,0.78h-0.86l0.17,0.52
	l-0.43,1.65l-0.69,0.43l-0.35,1.04l-1.04,0.87l-0.78-1.04l-0.52,0.08l-0.26,1.13l-0.78,0.52l-0.17-0.43l-0.96-0.09l-1.04,0.69
	l-0.52,0.18l-0.52,0.6l-0.78,0.09l-0.78,0.35l-1.12-0.96l-1.04-0.34l-0.52,0.08l-0.17,0.44l-1.13,0.17l0.17,0.52l-0.69,0.78
	l-0.78,0.52v0.61l-0.52,0.52l-1.91,0.86l-0.86-0.78l-0.18,1.22l-0.78,0.08l-0.69,0.44l-0.87,0.95l-0.69-0.09l-0.09,0.7l-1.21,1.21
	l0.18,0.52l-0.52,1.3l0.26,0.69l-1.04,0.43v0.78l0.34,0.87l1.48,2.6l0.69,1.91l0.08,0.95l-0.17,0.43l-0.78,0.35l0.18,0.78l0.51-0.18
	l1.39,1.39l-0.52,1.3l-0.95,0.95l-1.21,3.38h-0.7l-0.52,0.87l0.35,0.87l-0.35,0.86l0.09,0.52l-0.43,0.95l0.17,1.56l1.13,0.61
	l0.08,1.04l0.61,0.09l0.61-0.26l0.34-0.61l-0.17-0.61l0.95-0.26l1.56,0.26l0.43,1.13l-0.26,0.78l-0.86,0.61l-1.65,0.43l-0.78-0.87
	l-0.6,0.18l-0.09,0.69l-0.35,0.35l-0.17,0.78l0.17,0.43l-0.95,0.69l-0.26,0.35l-0.78,0.09l-1.47,1.38l-0.09,0.43l-0.69,0.26
	l-0.87,0.7l-0.09,0.43l0.26,0.69l-0.26,0.18l-0.95-0.18l-0.43,0.18l-0.26,0.86l-0.61,0.87l0.17,0.61l-0.78,0.17l0.26,1.04l-0.6,0.69
	l-0.61,0.18l-1.04,1.64l-1.38,1.3l-0.78,0.18l-0.96,1.03l-0.08,0.87l-0.7,0.61l0.52,0.34l-0.17,0.52l-0.69,0.26l-0.44-0.52
	l-1.56,1.13L807.2,303l-0.26,1.13l-0.95-0.09l0.17,0.52l-0.26,0.78l-0.78,0.17l-0.87,1.13l0.09,0.78l0.61,0.43l1.12,1.56l0.7,1.39
	l0.26,2.25l-1.3,0.95l-2.51,2.08l-1.3,1.3l-1.22,0.44l-1.3,0.34l-1.64,0.52l-1.22,0.35l-5.89,2.42l-0.69,0.44l-0.17,0.43l-0.52,2.43
	l-0.26,0.6l-0.52,2.26l-0.87,2.86l-0.43,1.81l-0.78,2.6l-1.39,2.6l-0.95,1.74l-1.56,3.37l-1.73,3.3l-2.34,2.86l-1.65,3.98
	l-0.52,0.35l-5.46,2.42l-2.68,1.48l-1.91,1.3l-1.99,1.3l-2.17,1.12l-1.3,0.52l-0.52,0.52l-1.73,2.17l-0.78,1.12l-2.69,8.93
	l-0.78,1.47l-0.78,0.69l-0.95,1.13l-3.12,2.6l-0.69,0.61l-0.87,1.38l-1.04,1.48l-0.6,2.51v0.69l-0.44,2.34l-1.12,0.52l-2.78,1.04
	l-1.99,0.95l-1.13,0.44l-2.16-0.09l-1.65,0.17h-3.55l-4.07,0.78l-1.91,0.61l-5.2,2.25l-3.72,1.91l-0.69,0.08l-1.91-0.17l-1.82-0.43
	l-0.61-0.87l-1.73-3.2l-0.17-1.04v-1.56l-0.35-0.52l-2.95-2.95l-0.95-0.43l-1.47-0.09l-1.39,0.43l-1.99,0.44l-0.87,0.86l-0.95,1.22
	l-0.69,0.52l-2.17,1.56l-1.47,1.64l-1.47,2.26l-2.43,6.58l-0.26,0.52l-2.34,1.73l-0.87,1.48l-1.38,1.9l-1.47,1.39l-4.34,3.64
	l-2.34,2.42l-0.6,1.3l-0.87,2.34l-0.69,1.73l-0.26,2.43l-0.09,1.47l-0.52,3.12l0.69,1.91l0.44,0.34l5.89,2.78l1.47,1.3l1.3,0.69
	l1.21,0.35h1.82l3.21-0.52h1.21l1.22,0.26l1.3,0.69l0.52,0.61l0.43,2.16l-0.26,1.74l0.09,2.77l-0.35,1.38v0.96l0.17,1.12l-0.34,1.65
	l-0.44,0.95l-1.47,2.25l-0.43,1.3l0.26,2l0.08,1.04l0.44,1.38l1.73,2.6l0.35,0.78l0.77,0.52l1.22,1.3l0.43,0.78l0.35,1.04l0.43,0.35
	l2.6,1.04l0.78,0.08l0.78-0.17l1.91-0.17h1.21l1.04-0.35l1.04-0.52l1.3-0.17l0.6,0.34l0.44,1.22l-0.09,2.34l-0.09,2.08l0.35,0.26
	l-0.26,2.25v1.04l-0.09,0.86l1.39,1.48l0.69,0.78l0.44,1.56l1.47,1.64l1.39,1.39l1.12,1.21l0.52,3.21l0.35,1.64l0.6,2l0.35,0.6
	l0.69,0.87l0.7,1.21l0.95,1.74l1.13,2.85l0.95,0.96l-0.61,0.69l-1.12,0.69l-0.78,0.26l-0.61,1.04l0.09,1.04l-0.18,0.87l0.52,0.61
	l-0.26,1.81v0.78l0.7,0.26l1.9-0.08l0.7,0.17l0.52,0.61l-0.35,0.69l-1.04,0.35l-0.61,0.78l-0.6,0.34h-1.04l-0.44-0.43l-1.12,0.43
	l-1.04,0.96l-1.13,0.86l0.26,1.04l-1.21,0.35l-0.52,0.43l-0.87,0.35l-2.42,0.09l-2.08-0.18l-1.22-0.43h-0.6l-0.61-0.43v-0.44
	l0.43-0.6l-0.43-0.44l0.26-0.6l-0.26-0.87l0.61-0.52l0.52-1.39l-1.04-0.6l-1.3,0.34l-1.47,0.61l-0.7,0.17l-2.6,1.04l-1.3,0.18
	l-0.86,0.26l-1.82,0.78l-2.51,0.52l-1.22,0.52l-0.95,2.25l-0.87,1.04l-0.69,0.43l-1.39,0.18h-1.99l-2.51-0.09l-3.03-0.26l-1.22-0.95
	l-1.9-1.82l-0.52-0.52l-0.61,0.17l-2.34,0.52l-2.08-0.61l-1.47,0.26h-0.61l-1.47-0.34l-1.04,0.26l-1.39,0.6l-0.86,0.52l-1.82-0.6
	l-0.61-0.35l-0.95-0.17l-2.08,1.3l-0.87,0.08l-0.43-0.34l-0.69-1.3l-0.78,0.6l-0.7,1.91l-0.6,0.09l-0.87-0.35l-0.26-0.69l-0.35-2.6
	l-1.64,0.43l-0.26,0.35l-0.09,5.97v2.08l-0.26,1.22l-0.09,1.21l-5.97-0.09l-0.26,0.61l0.17,0.35l0.43,0.08l0.09,0.09l-0.09,0.17
	h0.61l0.26,0.09v-0.61l0.61,0.18l0.34,0.6l-0.17,0.44l-1.21,0.69l-0.7,1.3l-0.78,0.78l0.09,0.52l-0.26,0.26v0.34l0.26,0.35v0.43
	h0.26l0.87-1.3l0.34-0.77l0.61-0.61l1.47,0.09l0.78-0.78l1.65,0.26v0.78l-1.3,0.34l-0.69,0.52l-0.87,1.47l-0.78,0.26l-0.26,0.61
	l-1.21,0.43l-0.26,0.7l-0.52,0.26l-0.35,0.86l-0.52,0.18l-0.35,0.69l0.18,0.87l-0.18,0.34l0.18,1.3l-0.09,0.52l0.26,0.87l-0.26,0.35
	l0.43,0.43l0.09,0.86l0.69,0.44l0.09,0.86l0.69,0.09l0.26,1.3l0.44-0.35l0.26,0.52l0.43-0.17l0.26,0.61l0.69,0.52l-0.08,0.86
	l0.78,0.7h-0.87l0.26,0.95l-0.78,1.21l-0.87,0.26l1.22,1.13l0.95,1.12l0.69,0.35l1.65,1.21l0.78,0.78l1.47,0.52l2.08,1.48l0.69,0.26
	l1.13,0.86l1.3,0.78l1.65,0.87l1.9,1.3l0.52,0.43l0.69,0.35l1.39,0.87l0.78,0.08l1.3,0.35l1.56-0.26l0.78,0.35l1.3,0.25l1.65,1.04
	l0.86,0.26l1.47-0.52l0.87,0.09l0.43,0.52l0.87,0.35l0.69-0.26l1.56,0.34l1.13,0.61l0.09-0.43l0.95-1.39l0.17-0.78l1.3-1.04h0.61
	l1.47-0.69l1.13,0.26l1.38-0.87l1.13-0.26l3.47-0.26l0.69-0.52l0.26-0.52l1.13-0.34h0.95l0.43-0.26l0.17-0.61l0.61,0.17l1.04,0.87
	l0.52-0.17l0.52,0.43l0.69,0.26l1.13-0.52l0.35-0.52l0.08-2.08l0.96-0.95l0.52-0.26l1.38-0.35l-0.69,1.99l-0.43,0.87l-0.78,0.95
	l-0.18,0.78l-0.34,0.44l-0.78,0.26l-1.3,1.99l-0.09,0.61l-1.13,1.9v0.43l-0.86,0.78l-0.52,0.18v0.69l-0.44,0.26l0.18,0.87l-0.78,1.3
	l-0.61,0.43l-0.17,0.95l-0.87,1.13l-0.78,0.09h-2.08l-0.6-0.18l-1.82,0.35l-1.13,0.52l-0.09,0.52l-0.26-0.09l-0.6,0.78l-0.09,0.69
	l-0.52,0.09l-0.52,0.52l-1.04-0.26l-0.34,0.17l-0.18,0.78l-0.52,0.7l-0.34,0.08l-0.96-0.95l-0.43,0.09l-0.17-0.87l-0.61-0.17
	l-0.87,0.34l0.35,0.52l-0.35,0.44l0.26,0.86h-1.04l-0.34,1.13l-0.26,0.09l-0.78-0.35v0.61h-0.52l-0.78-0.61h-0.44l-0.26-1.21
	l-0.86-0.7l-0.18,1.04l0.18,0.52l-0.96,0.7v0.6l-0.69,0.26l-0.34-0.17l-0.96,0.61l-1.64-0.18l-0.78-0.26l-0.18,0.78l-1.3,0.96
	l-0.95,0.17l-0.61,0.35l-0.95-0.18l-1.04-0.95l-0.26-0.35l0.17-1.3l0.35-0.95l0.61-0.52l-0.26-0.95h-0.61l-0.61,0.6l-0.78,0.09
	l-0.43-0.35l-0.78,0.61l-0.34-0.09l-0.78-1.21l0.86-0.69l0.18-0.78l-2.08,1.21l-0.7,0.87l-0.86,1.47v1.04l-0.44,0.09l-0.17,0.6
	l0.61,1.65l-0.09,0.43l0.78,1.13l1.04,1.21l1.3,1.56l0.87,0.95l1.12,1.3l2.51,2.95l1.39,1.47l2.77,2.52l0.7,0.43l0.78,0.87
	l0.95,1.03l1.13,0.78l1.73,1.91l1.56,1.39h0.52l2.16,2.25l0.96,0.87h0.26l0.26-0.96l-0.61-0.69l0.26-0.61l-0.61-0.6l0.18-0.52
	l0.78,0.43l0.6-0.17l0.18,0.86l0.43,0.44v0.52l-0.52,0.52l-0.61,0.26l0.09,0.43l-0.52,0.43l1.73,1.91l3.29,4.07l1.22,1.56l2.51,2.95
	l0.61,0.6l0.95,1.13l1.13,1.21l1.04,0.78l0.26,0.35l3.46,3.12l3.12,2.25l0.87,0.17l0.95,1.04l1.04,0.7h0.43l0.7,0.52l1.47,0.6
	l1.04,0.7l1.82,0.6l0.78,0.09l0.08-0.26v-0.09l0.26-0.43l-0.08-0.52l-0.18-0.52l0.09-0.78l0.43-1.3l0.7-0.87l0.08-0.78l0.35-0.78
	l0.26-0.52l-0.17-0.34l0.26-0.09l0.34,0.52l0.44,0.35l0.08,0.08l0.18-0.17l0.43,0.17l0.43-0.08l0.52,0.08l0.61-0.34l0.17,0.26
	l0.35,0.08l0.52,0.18l0.26,0.6l0.35,1.04v0.52l-0.52,0.44l-1.3,0.52v0.6l0.34,0.18h1.13l0.26,0.52l-0.09,0.69l-0.95,0.35v0.6
	l-0.26,0.35l0.61,0.78v0.6h0.52l0.34-0.52l0.78-0.17l0.52-0.09l0.43,0.09l0.87-0.52l0.17,0.17l1.13,0.09l0.43,0.26l0.87-0.26
	l0.17-0.52l0.78-0.17l1.13,0.08l0.35-0.69l1.21-0.26l0.26-0.43l0.69-0.09l2.6-1.3l1.47-0.26l0.7-0.34l1.21-0.09l0.35-0.43l0.86-0.26
	l0.44-0.87h0.43l0.09-0.87h0.6l2-0.69l1.12-0.26l0.09-0.52l0.78-0.26l0.43,0.09l1.21-0.78h1.3l0.7-0.61l0.26-0.61l3.55-1.64
	l1.04-0.26l1.13-0.78l-0.09-0.43l1.04-0.78l-0.35,1.12l1.13-0.43l0.26-0.43l1.73-0.87l-0.17-0.61l-0.61-0.26l-0.26-0.52l0.87-1.3
	v-0.52l0.69-1.3l0.95-1.04l0.18-0.43l1.56-1.65l0.78-1.64l0.43-1.56l0.09-0.95l1.12-1.82l-0.08-0.52l-0.52-0.7l-0.18-0.69l-0.6-1.13
	l-0.35-0.86l0.69-0.18l-0.34-0.86l-0.09-3.38l-1.13-1.82l0.35-1.82l-0.52,0.17l0.52-1.56l0.26-0.43l1.13-0.61l-0.09-0.43l0.78-0.43
	l0.09,0.95l-0.52,0.09l-1.3,0.78l0.08,0.52l0.44,0.43l-0.26,1.04l0.34,0.26l-0.08,0.61l0.6-0.18l1.04-4.33l0.26-0.69l-0.34-0.43
	l0.34-0.35l0.52,0.43l0.44-0.52l0.08-0.78l0.87,0.52l0.09-0.78l-0.78-0.52l-0.18-0.78l0.52-0.26l0.7,0.96l0.51-0.78l-0.17-0.78
	l0.09-1.04l-0.09-0.52l-1.04-0.18l0.09-0.95l0.69-0.52v0.78l-0.43,0.43l1.38,0.35l1.04,1.91h0.7l-0.61,1.38l0.43,0.09l0.61-1.13
	l0.43-0.43l0.52,0.09l0.52-0.52l0.44,0.17l1.04-0.78l0.86-0.17l0.61,0.43l0.95,1.04l2.08,0.17l1.47-1.04l0.96-0.6l0.26,0.08
	l0.43,1.22l1.39-0.09L775.4,576l-0.86,0.26l-1.48-0.78l-0.6,0.35l-0.69,1.39l-0.52,0.6l-1.74-0.26l-1.47-1.04l-1.39,0.09l-0.95,0.78
	l-0.69,1.21l-0.61,2.34l-0.26,1.56l-0.26,1.13l-0.17,1.82l0.17,1.21l0.26,0.26l0.17,1.3l0.35,0.09l0.95,0.69l-0.43,1.04l-0.26,0.95
	v0.61l-0.69,0.95l0.08,1.04l0.7,0.69h0.34l1.13-0.69l3.38,0.09l0.78-0.35l0.69,0.61l1.13,0.26l-0.35,0.52l-1.04-0.18l-0.08,0.26
	l-0.78,0.09l-0.52-0.35l-0.96,0.7l-0.69,0.34h-0.61l-0.69,1.22l-0.17,1.12l0.78,1.39l0.52-0.17l0.78-0.96l0.17,0.52l-0.35,1.3
	l-0.34,0.52v0.87l0.34,0.26l-1.21,1.64v0.96l-0.87,1.04l-0.08,1.12l0.17,0.87l0.69,0.87v2.51l0.18,1.73l0.78,0.35l0.17-0.35
	l0.09-1.56l0.08-0.52l0.52-0.08l1.04,0.52l-0.26,0.43l-0.26,0.86l0.18,0.87l1.38,0.35l-0.86,0.78l0.34,1.38l0.61,1.56l0.95,0.7
	l0.17,0.78l0.78,1.99l0.18,0.61l0.43,0.52l-0.17,0.51l0.69,0.52l0.35,0.61l-0.52,0.43l0.69,2.52l0.35,0.43l0.34,2.08l-0.34,0.78
	v1.13l-0.09,0.52l-0.61,0.6l0.09,0.35l-0.43,0.43l-0.35,0.52v0.61l0.17,0.08l0.18,0.09l0.52,0.17v0.09l0.17,0.35v0.43l-0.17-0.35
	l-0.52-0.52l-0.26,0.26l-0.35,0.96l-0.26-0.09l-0.43,0.61l-0.52,0.08l-0.44,0.52v0.96l-0.6,0.34l-0.17,1.13l-0.26,0.35l0.17,1.47
	l-0.26,1.99v0.61l-0.35,1.04l-0.52,0.43l0.26,0.87l0.18,1.73l-0.18,0.35l-0.78,0.6l-0.69,0.7l0.35,0.43l0.08,0.95v0.78l-0.34,0.44
	l-0.52-0.18v0.87l0.78,0.52l0.26,0.52v1.56l0.69,1.39l-0.09,0.69l0.18,1.3l0.43,0.43l0.09,0.87l-0.44,0.26v0.52l0.35,1.38l0.43,0.44
	l1.13,0.78l-0.78,0.52l-0.26,0.6l0.43,1.22l-0.09,1.21l1.22,1.47l-0.44,0.87v1.56l-0.26,0.95l0.18,0.87l0.43,0.52l-0.35,0.52
	l0.18,0.34l0.86,0.87l0.26,0.87l-0.08,1.64l0.43,0.26l-0.87,1.04l0.09,0.61l-0.35,0.43l0.7,1.04l0.6,0.17l0.09-0.78l0.43-1.55
	l1.65,0.17l1.04-0.87l0.26-1.04h0.87l0.34,0.96l-0.08,0.6l0.52,0.87l-0.52,0.34l-0.87,0.26l-0.43-0.34l-0.52,0.86l0.69,0.78
	l-0.17,0.35l-1.04-0.09l-0.44,0.35v0.52l0.61,1.04l0.43,0.17l1.04-0.52l0.18,1.65l-0.35,0.61l-0.43-0.35l-0.35-0.78l-0.87,1.04
	l-0.43-0.35l-0.69,0.09l-0.44,0.35l0.09,1.04l-0.09,1.12l-0.26,0.78l0.52,1.73l0.35,0.09l0.35,0.78l0.69,1.65l0.26,0.78l-0.52,0.34
	l-0.43,2.08l0.34,0.52l0.09,1.3l0.43,0.26v0.52l-0.34,0.61l0.69,0.17l0.52,0.52l0.52,0.96l0.61,0.69l0.52-0.18l0.78,0.61l0.95-0.09
	l-0.17,0.52l0.52,0.61l-0.61,0.09l-1.73-0.61l-0.78,0.09l-0.35-1.04l-0.69-0.18l0.17,1.91l0.35,0.17l0.69,0.78l0.26,1.04l-0.17,0.7
	l-0.35,0.17l0.26,0.78l0.35,0.26l0.17,0.69l-0.26,0.61l1.21,0.78l-0.6,0.26l0.34,1.04l0.61,0.35l-0.35,0.34v0.78l0.7,0.35v0.95
	l0.52,0.35l0.34,0.78l0.44,1.73l0.43,0.69l0.52,1.56l0.17,0.87l-0.6,0.61l0.17,0.78l0.34,0.34l-0.17,0.52l0.52,1.04l0.52,0.35v0.69
	h-0.61v0.69l1.22,1.22l0.34,1.3l-0.26,0.26v1.38l-0.52,0.26l0.26,0.52l0.96,0.09l0.34,0.95v0.7l0.61,0.43l-0.17,0.95l-0.35-0.52
	l-0.69,0.44l0.17,0.69l0.52,0.09l0.69,1.73l0.78,2.68l0.35,0.52l0.09,1.48l-0.26,0.69l-0.61-0.43v0.95l0.52-0.17l0.26,0.43
	l-0.26,0.52l0.52,0.26v0.87l-0.35,0.26l0.18,0.95l-0.26,0.43l0.6,0.35l-0.17,0.69l0.09,1.65l0.6,0.26l-0.34,1.3v1.12l0.78,1.3
	l0.08,1.39l0.52,0.61l-0.34,0.6l-0.7,0.09l0.18,0.52l0.6,0.52l0.35,1.12h-0.26l-0.35-0.95l-0.69,0.61l0.43,0.86l0.18,0.78l0.69,1.3
	l0.35,1.48l0.26,0.34l-0.26,0.7l0.6,0.08l0.26,0.96l-0.08,0.43l0.34,0.61l0.35,1.56l0.61,1.47l0.34,1.38l0.52,2.52l-0.26,0.43
	l0.78,0.61l0.17,0.86l0.09,0.87l0.43,0.61l0.09,0.69l1.13,0.43l1.12,0.52l0.26,0.35l0.44,1.12l0.52,0.26l0.69,1.56l0.35,1.39
	l-0.26,0.43l0.78,0.61l0.26,0.09l0.69,1.56l0.35,1.21l0.26,0.35l0.69,0.08l-0.69,0.78l0.69,1.39l0.35,1.64l1.12-0.08l-0.17,1.04
	l1.04,0.34l0.43-0.08l0.35,0.69h0.78l0.26,0.43l-0.44,0.52l-1.12-0.34l-0.78,0.17l-1.04-0.26l0.26,0.61l0.35-0.09l0.17,0.61
	l0.78,0.17l0.17,0.35l0.95-0.35l0.44,0.61l0.6,1.82l0.61,2.08l0.61,2.33l-0.35,0.44l0.09,0.43l-0.52,0.26l0.26,0.95l1.04,0.44
	l0.52,0.43l0.26,1.04l0.78,0.17l0.43,0.35l0.43,1.3l-0.17,1.21l1.65,0.7l0.17-0.26l-0.17,0.69l0.78,1.39v0.6l-0.96,0.44l0.52,0.51
	l0.96,0.26l0.52,0.7l0.6,0.08l0.35,0.52l1.73-0.17l0.95,1.91l-0.17,0.6l0.17,0.78l-0.26,0.18l1.13,2.25l0.09,1.04l1.12-0.09
	l-0.08-0.69l0.52-0.43l0.43,0.69l-0.69,0.52v0.52l0.95,2.51l0.43,1.47l0.18,1.65l1.21,3.55l0.43,0.18l0.18,0.78l0.43,2.51l0.35,1.12
	l0.08,0.87l0.35,1.13l1.04,1.12h0.52l0.69,1.3l0.09,0.52l0.43,0.78l0.61,2.34l0.43,2.86l0.26,0.78l0.26,0.35l0.61,3.2l0.26,2.69
	l0.08,0.26l0.18,3.03l0.43,0.61l0.26,0.95v0.69l0.35,1.3l0.69,2.6l0.35,1.74l0.34,0.95l-0.08,0.26l0.6,2.42l0.26,1.65l0.44,2.08
	l0.17,0.17l0.52,1.48l0.61,1.3l0.52,1.38l0.78,1.65l1.55,3.72l0.35,1.04l0.52,0.96l0.69,1.47l0.87,1.13l0.78,1.81l1.39,3.47
	l0.34-0.17l0.26,0.78l0.35,0.52l0.17,0.69l0.44,0.95l0.08,0.96l0.44,1.38l0.52,0.95l0.78-0.6l-0.18-0.61l-0.08-0.26v-0.69
	l-0.09-0.69l0.09-0.18l0.43-0.17l0.09,0.09l0.17,0.17l0.26-0.17l0.35,0.17h0.34l0.18-0.35l0.77-0.52v-0.17h0.01l0.25-0.17l0.18-0.09
	l0.6,0.17l0.61,0.18l0.17-0.35h0.44l0.34,0.17l0.09,0.18l-0.26,0.26l-0.35-0.09l-0.08,0.17h-0.26l-0.52,0.44l-0.44,0.26l-0.26-0.09
	l-0.26-0.09l-0.34,0.09l0.17,0.43l-0.52,0.78l0.09,0.18l0.17,0.08l0.17,0.18h0.01l-0.03,0.04l-0.32,0.91l-0.61-0.18l-0.4,0.41
	l-0.01,0.05l0.76,0.67l0.34,0.69l-0.08,0.7l0.78,1.04l1.21,1.64l0.35-0.26l0.86,0.7l1.04,1.21l0.35,0.78l0.52,0.26l1.04,0.87
	l0.69,0.86l0.7,1.56l0.95,2.25l0.95,2.69v0.35l0.44,0.43l0.34-0.17l1.04,0.6l0.69,0.96l1.04,2.08l-0.17,0.43l0.43,0.43l0.78,2.34
	l0.87,2.43h0.17l0.7,1.73l0.43,1.21l0.17,1.13l0.7,2.51l1.04,4.51l0.6,1.64l1.91,4.16l0.09,0.35l2.33,4.85l1.04,2.6l0.7,2.51
	l0.69,2.08l0.61,1.73l0.6,2.34l0.52,1.48l0.18,0.86l0.52-0.26l-0.18-0.69l0.09-0.69l-1.04-3.12l0.52,0.26l1.13,1.21l0.08,0.43
	l-0.34,0.52l0.08,0.35l0.52,0.78v0.78l0.61,1.47l0.26,0.09l0.43,0.78l0.09,0.69l0.69,0.09l-0.26-0.78l0.61,0.09l0.35,0.52l0.6,1.55
	v0.87l-0.52,0.52l0.18,0.61l0.34,0.43l0.18,0.52l-0.26,1.13l0.95,0.26l-0.26,0.69l-0.09,0.78l0.43,0.35l0.35,0.69l-0.35,1.21v0.35
	l1.14,0.44l0.25,0.08v0.02l1.04,0.41l-4.24,0.09l-0.09-0.43l0.17-1.04l0.26-0.26v-0.87l0.7-1.39v-0.6l-0.52-0.18l-0.26-0.34v-0.96
	l0.17-0.43l-0.09-1.04l-0.26-0.61l0.35-0.6l-0.87-0.52l-0.08-0.69l-0.26-0.44l-1.22-0.6l-0.26,0.6l-0.34,0.18l-0.26-0.96l0.78-0.17
	l0.17-0.52l-0.69-0.35l-0.08-0.26h-0.01l-0.02-0.11l-0.15-0.49l-0.7-0.09l0.7,2.6l0.69,3.81l0.52,4.94l0.26,1.91l0.61,2.25l0.6,2.08
	l1.82,3.81l1.39,3.29l0.78,1.47l0.78,1.91l0.17,0.35l0.35,1.47l0.34,1.56l0.35,0.61l0.43,0.52l0.78,0.08l0.78,0.78l1.74,2.26
	l0.78,1.21l1.9,2.34l0.52,0.69l2.34,2.86l0.69,0.95l2.17,2.6l0.43,1.04l0.7,0.35l0.43,0.43l2.25,1.73l2.08,1.56l0.69,0.78l0.87,0.52
	l0.95,0.96l0.87,0.26l0.61,0.43l0.26,0.61l1.3,0.17l1.82,0.52l3.72,0.78h0.43l0.26-0.35v-0.86l0.44-0.52l1.12-0.44l3.04-0.43
	l0.78-0.26l1.21-0.95v-0.44l0.95-0.78l1.22-0.34l0.95-0.44l0.34-0.43l1.56-0.78l0.09-0.26l0.78-0.52l1.21-0.61l1.3-0.34l-0.34-0.35
	l0.34-1.21l0.96-1.21l0.95-1.04l-0.26-0.52l0.52-2.17l-0.26-0.43l-0.87-0.26v-0.78l0.26-0.09l0.18-0.61l0.34,0.09l0.18-0.95l0.6-0.7
	l0.26-0.69l0.35-0.35l0.69-0.17v-0.34l-1.04-0.26l-0.08-0.87l0.08-0.61l0.18-1.73l0.34-0.43l0.09-0.7l0.78-1.3l0.78-0.69l2.16-1.39
	l1.04-0.78l1.13-0.95l0.87-0.69l1.38-0.43l0.96-0.09l0.6-0.17l1.22-0.09l0.69,0.17l1.12-0.6l1.13-0.18l-0.26-0.34l0.17-0.44
	l0.52-0.34l1.56,0.17l-0.08-0.35l0.52-0.26l0.69-0.17l3.03-1.13l0.61-0.08l0.78,0.26l0.52-0.52l0.87-0.18l0.77-0.08l1.39,0.17
	l1.13,0.26h0.86l0.78-0.26l1.48-0.35l-0.78-0.34l-1.13,0.08l-1.21-0.34l-1.3-0.87l-0.96-0.78l-1.55-1.65l-1.04-1.73l-0.09-0.6
	l0.52-0.18l0.09-1.3l0.43-2.08l0.69-0.6l0.44-0.87l0.25-0.95l1.13-1.39l0.61-0.95l0.6-0.26l0.52-0.78l0.44-0.87l0.43-0.26l0.52-0.78
	l-0.17-0.34l0.26-0.61l0.78-0.78l0.08-0.35l1.04-1.04l1.48-1.73l0.6-0.52l-0.26-0.69l-0.43-0.26l-0.35-0.78l0.18-0.78l-0.09-0.7
	l0.35-0.17v-0.78l1.21-1.04l-0.43-0.43l0.78-0.95l0.95-0.61l1.3-0.43l0.34-0.61l0.44-0.09l3.46,0.26l-0.34-0.26l1.21-0.17
	l-0.26-0.35l0.43-0.34l1.22,0.26l-0.09,0.34l-0.78-0.17l-0.35,0.52l-0.6,0.35l5.89,0.95l-1.21-0.52h-0.61l-1.39-0.26l-1.04-0.09
	l0.87-0.52l0.43-0.78l0.61,0.78h0.69l0.44-0.17l1.03,0.17l0.26,0.26l0.96-0.08l0.08,0.34l-0.6,0.78l1.56,0.09l1.12-0.09l0.96-0.34
	l0.52-0.61l-0.44-1.82l-0.17-1.47l-0.17-3.99l-0.09-1.12l-0.17-5.2v-1.65l-0.44,0.09l-0.69-0.09l0.09-0.17l-0.09-0.26l-0.09-0.09
	l-0.17-0.09l-0.26-0.17l-0.09-0.26l0.44-0.09l-0.52-0.34l-0.09-0.35l-0.26-0.09h-0.17l0.17-0.17l-0.09-0.17l-0.43,0.17l-0.17-0.09
	l-0.18-0.26l-0.17-0.17l-0.43-0.09v-0.08l-0.09-0.09l-0.17,0.09l0.08-0.17l-0.34-0.09v-0.17h-0.18l0.09-0.09l0.43-0.35l-0.17-0.08
	l-0.35-0.26l0.35-0.18h0.35l0.34,0.26l0.18-0.17l-0.18-0.17l0.09-0.26l-0.09-0.09v-0.09l-0.17-0.17l-0.09-0.35h0.35l0.52,0.18
	l0.43,0.08l0.44,0.18l0.26-0.35h0.17l0.17,0.09l0.44-0.09l0.34,0.17l0.44,0.09l0.17-0.09l0.09-4.85l-0.26-2.86l-0.35-1.47
	l-0.09-0.95l0.09-1.04l-0.26-0.18l-0.69-2.68l-0.52-1.04l-0.44-0.96l-0.43-1.3l-0.09-0.95l0.18-1.12l0.43-2.69l0.52-1.73l0.17-1.22
	l-0.43-0.95l-0.52-0.09l-0.35-0.52l-0.78,0.35h-0.69l-0.34-0.17v-0.61l-1.04,0.26V897l0.6-0.08l0.87,0.17l0.43-0.52l-0.61-0.69
	l0.09-0.44h-0.69v-0.6l0.52-0.18l-0.17-0.69h-1.56l0.17-0.52l0.09-0.17l0.26,0.09l0.26-0.35l0.69-0.26v0.61l0.43,0.6h0.52l0.17-0.26
	l0.7,0.26l-0.26,0.18l-0.52,0.25l-0.26-0.17h-0.09v0.35l0.52,0.26l0.26,1.21l0.17-0.26v-0.35l0.52-0.17l0.09-0.26l0.17-0.17
	l0.09,0.08l0.43,0.09v-0.43l0.18-0.18h0.17l0.17,0.44l0.52,0.26h0.35l0.26-1.21l1.13-2.6l1.38-2.17l1.74-2.69l-0.26-0.26l0.08-0.52
	l0.87-0.34l0.09-0.35l0.95-1.47l-0.43-0.43l0.26-0.78l0.78,0.34l1.38-1.64l0.78-1.22l0.43-0.78l0.26-1.64l0.96-2.69l0.43-1.3
	l1.21-3.72l-0.26-0.78l0.09-1.65l0.35-2.25l0.6-2.78l0.09-0.95l0.61-1.12l-0.09-1.48l0.26-0.6l0.78-2.78l0.26-1.21v-1.04l-0.43-2.17
	l-0.09-0.95l-0.43,0.09h-0.52l-0.61-0.52l-0.35-0.87l-0.78-0.34l-1.73-0.35l-0.52,0.17l-0.69-0.69l-0.87-0.17l-0.61-1.04l-0.43-0.18
	l-0.6-0.78l0.6-0.69v-0.87l0.52-0.52l0.43-0.08l0.61,1.3h0.43l0.18-1.48l-0.09-1.04l0.35-0.26l0.95,1.04v0.7l0.78,0.6l0.35,0.52
	l1.12,1.48l0.26,1.38l0.26,0.52l0.35,1.56l0.69,0.09l-0.43-0.87l-0.87-2.6l-0.86-1.64l-0.26-1.74l0.08-1.3l0.44-2.16l-0.18-1.13
	l-0.26-0.34l-0.52-1.39l-0.69-1.47l-0.69-1.82l-0.44-0.44l-0.26-0.86l-0.43-2.26l-0.17-1.99v-1.38l0.26-1.74l0.26-0.95l0.69-1.82
	l0.09-1.99l0.26-3.21l0.52-1.47v-0.43l-0.78-0.52l-0.18-0.35l-0.69-2.43l-0.95-1.3l-0.26-0.78l-0.44-1.64l-0.08-2.08l-0.43-1.13
	l-0.52-3.12l-0.09-1.82l0.52-2.08l0.52-1.21l0.08-0.69l-0.08-1.39l0.34-1.56l0.44-0.95l0.52-0.95l2.16-2.78l0.44-1.55l0.34-0.78
	l-0.08-0.35l0.34-1.47l1.04-2.17l1.22-1.47l0.78-0.87l1.3-0.87l1.99-1.21l1.73-0.78l1.73-0.61l2.26-0.51l1.21-0.09h0.78l2.25,0.6
	l0.78,0.96l-0.09,0.43l-0.51,0.26l0.51,1.47l-0.25,0.52l0.6,0.96l0.43,0.08l2.34-0.34l0.61,0.08l1.82-1.04l0.26-0.17v-0.78
	l-0.35-0.61l0.09-0.86l0.69-0.78l0.78-0.87l1.22-1.47l1.21-0.95l0.43-0.35l-0.17-0.69l0.09-0.7l1.38-2.6l0.43-1.3l0.09-0.95
	l0.35-1.04l0.78-1.21l1.12-1.3l1.13-0.69l2.17-0.87l2.25-0.35h1.13l1.03-0.17l0.52,0.43l2.6,0.35l1.13,0.09l0.95,0.6l1.65-0.69
	l1.99-1.13l1.48-0.52l1.55-0.26l2.52-1.3l1.3-0.78l4.42-2.25l1.12-0.43l0.52-0.7h0.35l0.26-0.6l-0.61-1.39l-0.69-0.52l0.17-0.34
	l-0.08-0.78h-0.35l-0.87-0.61l-0.69,0.09l-0.43-0.26l0.52-0.61l0.69,0.52l1.82-0.09l0.52,0.26l0.6-0.6l0.7-0.09v-0.52l0.43-1.82
	l-0.17-0.35l0.26-0.78l-0.7-0.26h-0.69l-0.95-0.69l-0.35,0.09l-0.52-0.96v-0.86l0.61-0.18l-0.09-0.52l0.43-0.6l-0.17-0.52l0.78-1.47
	l0.78-0.96l3.21-3.12l1.56-1.3l1.21-0.86l2.69-1.74l2.33-1.38l1.65-0.87l2.43-1.12l0.86-0.26l0.44-0.35l1.21-0.52l0.87-0.52
	l0.95-0.26l0.6-0.95l0.78-0.44l1.39-0.6l0.69-0.35l1.74-0.52l0.43-0.43l1.13-0.61l0.6-0.52l0.18-0.69l0.52-0.35l1.12-0.95l0.09-0.61
	l0.43-0.43l0.78-0.43l0.44-1.04l0.86-0.7l0.17-0.43l0.61-0.52l0.26-1.47l0.69-0.52l0.35-0.44l-0.09-0.43l1.04-0.78l1.3-0.69
	l0.87-1.13v-0.43l0.26-0.52l2.17-1.47l0.78-0.7l1.3-0.78l2.16-1.12l2.25-0.96l0.7-0.6l1.9-0.61l1.82-1.04l1.74-0.87l1.73-1.12
	l-0.09-0.44l0.78-1.56l1.99-1.99l2-1.9l2.08-1.74l0.17-0.95l2.34-2.34v-0.52l1.47-1.9l1.21-0.96l0.7-0.78v-0.69l0.6-0.61l0.35-1.12
	l0.78-0.87l1.65-1.56l-0.18-0.43l0.7-0.26l2.16-3.03l-0.86-0.61l-0.35-0.17l-0.52-0.7l0.61-0.69l0.69-0.09v0.78l0.95,0.26l0.52-0.6
	l0.26-0.61l1.13-1.56l1.3-1.3l1.38-1.21l1.56-1.3l2.17-1.39l0.78-0.69l0.61-0.96l0.95-0.86l4.59-3.47l1.3-0.78l2.43-1.38l2.16-0.96
	l1.13-0.69l1.47-0.69l2.95-1.56l4.85-1.73l3.2-0.87l2.69-0.52l0.09-0.17l1.47-0.26l1.04-0.35l2.86-0.95l1.99-1.04l1.99-0.61
	l-1.04-0.78l-0.95-1.47l-1.21,0.17l-0.43-0.35l0.26-0.69l0.43-0.26l0.86,0.17l1.04,0.78l0.35,1.3l0.26,0.26l1.13,0.18l0.69-0.78
	l-0.09-0.61l0.26-0.69l1.82-1.82l1.39-2.25l-0.26-0.09l-0.61,0.61l-0.17-0.44l0.61-0.26l0.78-0.78l1.38-0.52l1.04-0.6l1.73-0.7
	v-0.26l1.22-0.6l-0.26-0.35l0.78-0.35l1.04-0.69l0.6-0.95l-0.26-0.87l-0.95-0.52h-0.43v-1.56l0.26-0.52l0.43-1.12l0.35,0.08
	l0.43-1.04l2.6-1.99l1.39-0.87l3.2-2.16l-0.6-0.09l-1.13-0.35l-0.95-0.08l-1.04,0.52l-1.56,1.38h-0.18l-0.08-0.08l-0.09-0.09
	l-0.35-0.52l-0.08,0.87l-0.44,0.08l-0.36-0.02l-0.33,0.02l-0.05-0.05l-0.47-0.03l0.61-0.96l0.43-1.04l0.43-0.52v-1.12l0.52-0.52
	l1.39-0.61l2.25,0.35l0.35-1.3l-0.26-1.21l-1.47-2.86l-0.35-1.39l-0.26-0.52l-0.95-1.3l-0.44-0.95l-0.52-1.65l0.09-1.21l-0.17-0.52
	l0.69-0.87v-0.52l0.69-1.3l0.44-0.52l0.26-0.69l0.43-0.43l1.13-1.39l1.47-1.47l0.86-0.61l0.87-0.78h0.35l1.38-1.47l1.22-0.52
	l1.56-0.69l1.04-0.18l1.82-0.08l2.34,0.17l2.16-1.47l0.78-0.44l2.34-0.69l3.47-0.69l1.82-0.78l0.43-0.61l1.04,0.09l0.6-0.35
	l0.61-0.95l1.91-1.56l0.95-0.52l0.35-0.61l1.21-1.21l0.69-1.47l0.96-2.52l0.52-0.95l-1.04-0.87l-0.18-0.95h0.52l-0.08,0.69
	l1.04,1.13l0.69-0.26l2.42-1.73l0.78-1.13l-1.38-1.82l-0.35-0.6l-0.86-0.18l-1.22,0.09l-0.86-0.69l-0.35,0.34l-0.95-0.34l-0.61-0.87
	l-0.95-0.95l-0.18-1.48l0.35-0.34v-1.3l-0.43-1.21l0.6,0.08l0.26,1.65v2.16l0.78,1.13l1.22,0.78h0.69l0.78-1.04l0.09-0.95l0.26-0.61
	l0.52-0.09l-0.52,1.39l-0.18,0.95l-0.26,0.7h1.3l1.39,0.34l0.69,0.44l0.69,1.12v0.61l0.44,1.3l-0.35,1.82l-0.52,0.95l-1.21,1.39
	l0.6,0.86v0.44l-0.34,1.3l0.43,1.04l0.69,0.86l0.52,1.39l-0.08,0.35l1.99,0.34l-0.17-0.52l-0.61-0.95l0.09-0.26l0.17-0.17l0.09-0.09
	l1.12-0.43l0.09-0.78l0.17-0.18l0.26-0.08l0.87,0.26l0.09,1.12l0.17,0.7l0.52,0.17l0.35-0.35l-0.18-1.12l0.26-0.44l0.09-1.04
	l0.52-0.52l0.09-0.06v-0.02h0.03l0.14-0.09l0.26,0.09l0.26-0.26l0.61-0.18l-0.18,0.61l0.52,0.09l0.26-0.44l0.14-0.04l0.03-0.04h0.12
	l0.32-0.09l0.52,0.09l-0.35,0.17l-0.43,0.69l0.08,0.35l0.87,0.69l0.61-0.95l-0.09-0.78l0.52,0.26l0.26-0.17l0.26,0.43l0.69-0.52
	l0.35-0.95l-0.52-1.04l0.52-1.65l0.61-0.69l-0.26-0.52l-0.18-1.47l0.18-0.78l0.43-0.44l-0.09-0.43l0.78-0.87l0.26-0.69l0.78-0.17
	l1.04,0.43l0.44-0.78l-0.18-0.26l0.87-0.69l0.35-0.26h0.17l0.09-0.35v-0.17l0.34-0.26l-0.08-0.35l0.24-0.73l-0.01-0.09l-0.23-0.31
	l0.43-0.86l0.07-0.04l0.02-0.05h0.34l0.16-0.03l0.36-0.14l0.17-1.39l-0.17-0.69h-0.86l-0.52-0.43l-0.35-1.22l-0.35-0.34v-0.35
	l-0.26-0.26l-0.39-0.15l-0.07-0.01l-0.23,0.07l-0.33,0.07l-0.02,0.02l-0.01-0.01l-0.07,0.01l-0.44-0.26l-0.17-0.26l-0.61,0.17
	l0.26-0.26h0.26l0.26,0.26l0.26,0.09l0.25,0.25l0.03-0.01l0.16-0.15h0.34l0.06,0.01l0.03-0.01l0.04,0.02l0.48,0.06l0.35,0.35
	l0.17,0.09l0.17,0.08l0.44,0.52l0.08,0.78l0.61,0.61l0.52,0.17l0.26-2.08l-0.09-0.43l0.35-1.13l0.26,0.09l0.52-0.61l1.21-0.26v-0.78
	l0.61-0.52l-0.78-0.34v-0.61l0.52-0.61l0.34-1.04l-0.6-0.52l-0.52-0.78l-0.09-1.03l0.61-0.7l0.52-0.26l0.26-1.56l-0.61-1.12
	l-0.35,0.34l-0.69-0.34l-0.17-0.87l0.26-0.43l-0.52-0.26v-0.7l-1.04-0.17l0.26-0.52l0.08-1.56l0.18-0.35l-0.35-1.3l0.09-0.86
	l0.86-0.26l0.26-0.52l0.7-0.61l0.17-0.95l0.69-0.69h0.7l0.17-0.87l-0.26-0.17l-0.87,0.69l-0.6-0.35l-0.52-0.52l-1.82,0.18l-0.61-0.7
	l-0.69-0.17l0.17,1.13l-0.86-0.09l-0.44-0.69l-0.69,0.08l-0.78-0.52l0.09-0.52l-0.78-0.78l1.47-0.78l-0.26-0.34v-0.7l0.78-0.6
	l-0.35-0.61l0.35-1.73h0.78l-0.09-0.78l0.35-0.52l-0.09-0.52h-0.52l-1.04,0.52l-0.78-0.87l-0.6-0.26l-0.35-0.69l-0.69-0.35
	l-0.52-1.9l-1.65,0.26l0.17-0.87l-0.95-0.61l0.35-0.78l-0.26-1.47l0.26-0.69l0.17-0.95l-0.61-0.52l0.61-0.26l0.69-0.87l-0.78-1.39
	l1.39-0.43l0.26,0.35l0.95-0.35l0.09-0.35l1.04-0.52l0.09-0.43h0.78l0.26-0.69l-0.18-0.78l0.18-0.87l0.86-0.09l-0.34-0.69
	l-0.61-0.17v-1.3l-0.43-0.35l0.08-0.95l-0.86-0.09v-0.69h0.43l-0.35-1.56l0.61-0.95h0.35l0.17-2.34l-0.43-0.96l-0.61-0.43
	l-0.87-0.09l-1.3,0.26l-0.08-0.26h-1.13l-0.61-0.43l-0.34,1.04l-0.78-1.47l-0.7-0.09l-1.99-1.21l-1.38,0.26l-1.3-0.09l-0.61-0.35
	l-1.91-1.9l-1.73-0.43l-0.87-1.04l-0.78-0.52l-1.21-1.3l-1.12-1.91l-0.7-1.04l-0.95-0.87l-0.09-0.26l1.48-1.47l0.34-0.78l-0.17-0.35
	l0.69-1.03l0.44,0.08l0.17-1.04l1.64-1.64l-0.34-0.7l0.08-0.52l-0.52-0.6v-0.44l0.52-0.08l0.7-0.61l1.47-0.17l0.95,1.3l0.09,0.78
	l1.47,0.43l0.35,0.35l0.43-0.35l-0.52-1.13l0.52-0.78l0.52-0.34l0.61,0.34l0.61-0.17l-0.09-0.78l0.78-1.21l0.43-0.09l0.44-1.04
	l-0.52-0.17l0.52-1.13l-0.35-1.47l0.52-0.35l0.09-0.52l-0.52-1.38l0.6-0.09l0.35-0.52l2.25,0.52l0.17,0.61h0.52l1.13-0.87l0.78-0.09
	l0.87,0.26l0.43-0.34h0.69l1.13,0.78l0.78-0.09l0.17,0.26l0.78,0.26l1.3-1.21l0.78,0.95l0.69-0.09l0.7,0.52l0.43-1.04l-0.09-0.6
	l0.78-0.09l-0.26-0.69l0.18-0.61l0.78-0.61l0.69-0.08v-0.52l-0.52,0.08l-0.95-0.43h-1.13l-0.43-0.87l-0.52,0.35l-0.44-0.78
	l-0.86-0.43l0.09-1.04l-0.61-0.18l0.35-0.86l-0.26-0.52l0.43-0.43l-0.35-1.04l-0.52-0.09l-0.08-0.95l-0.35-0.18l-0.95,1.04
	l-0.78-0.34l-0.87,0.17l-0.35,0.87h-1.04l-0.52-0.35l-0.08-0.52h-0.61l-0.43-0.61l-0.35,0.35l-0.61-0.09l-0.78-0.34l-0.26-0.44
	l-0.6-0.17l-0.78-0.78l0.08-0.69h-0.77l-0.7-1.04l0.26-0.44v-1.12l-1.47-0.35l-0.09-0.43l-0.86-0.35l0.08-0.61l-1.12-0.69l-1.48-1.3
	l-0.52-0.26l-0.08-0.86l-0.44-0.09l-0.6,0.52l-0.44-0.09l-0.52,0.26l-0.43-0.34l-0.87,0.78l-1.55-1.56l0.26-0.78l-0.18-1.04
	l-0.6-1.13l0.17-0.52l0.52-0.17l0.6-1.74l0.78-1.04l0.87-0.17l-0.43-0.69l0.43-0.61l-0.78-0.95l0.43-0.52l0.18-1.21l1.56-0.87
	l0.52-0.61l0.69,0.09l0.35-0.35l0.95-0.17l0.95-0.61l0.26-0.78l-0.26-0.26v-0.95l0.44-0.61l1.12-0.6l0.35-0.61h0.69l0.18-0.69
	l0.43-0.18l0.52,0.18l0.95-0.09l0.43-0.43l-0.86-1.48l0.08-0.51l-0.52-0.61l0.09-0.26l-2.08-0.43l-1.12-0.52l-0.35,1.12l-0.87-0.78
	v-0.52l0.52-0.6l0.35-1.3l0.35-0.44l0.08-0.95l0.7-1.13l0.52-0.08l0.17,1.56l0.26,1.04l0.52,0.52l0.35-0.35l0.69,0.17l0.17,0.78
	l0.95,0.35l0.09,0.87l0.69-0.09l0.35,0.35l-0.17,0.52l1.21,0.26l-0.09-0.78l0.78,0.08l0.09,1.04l0.78,0.35l0.61,0.69l0.52-0.09
	l-0.09,0.87l0.43,0.87l-0.08,0.43l0.95-0.09l0.61-0.26l0.34,0.7v1.12l1.3-0.43l0.52,0.43l-0.17,0.61l0.09,0.69l0.95,0.78h0.95
	l-0.52-0.69l0.09-0.69l0.34-0.44l1.56,0.09l0.87,1.47l1.13-0.17l1.64,0.17l0.35-0.52l-0.09-1.12l-0.43,0.26l-0.69-0.18l0.17-0.52
	l-0.87,0.18l-0.34-0.61l0.43-0.43l-1.56-0.87l-0.78-0.09l-0.35-0.43l0.26-0.95l0.78-0.78l0.09-0.78l0.26-0.35l0.78,0.44v0.6
	l0.35,0.35l0.78,0.08l0.52,0.61h0.78l0.86,0.43l0.09,1.74l1.13,1.12l-0.96,0.35l0.52,1.13l0.61,0.6l-0.09,1.22l-0.08,0.6l0.52,1.3
	l0.43,0.44l0.69,0.26l0.95-0.09l0.7,0.69l0.26,1.3l0.78,0.17l1.21,0.7l0.61,0.78l0.43,0.17l0.95-0.43l0.52-0.61l0.61-0.09
	l-0.09,0.87l1.04,0.61l1.22-0.09l0.43-0.26l0.69,0.43l-0.08,0.78l0.43,0.18l0.69-0.44l0.09-1.73l0.6-0.43l1.39-0.78l-0.61-1.56
	l-0.78-0.35l-0.17-0.43l0.78-1.3h0.52v-0.61l-0.17-1.04l0.69,0.35l1.04,1.39l-0.17,0.6l0.69,0.09l0.17-0.35l0.09,0.35l0.78-0.09
	l0.69,1.13l-0.34,0.35l0.86,0.43l-0.08,0.34l0.86,1.56l0.35,1.04l0.61,0.18l0.17,0.6l0.61,0.52l-0.96,0.26l-0.26,0.7l1.56-0.09
	l-0.08,0.87l-0.87,0.95l-0.69,1.21v0.52l-0.44,0.61l0.44,0.35l0.43,1.64l-0.43,0.69l0.26,0.78l0.43,0.09v0.87l0.61,0.86l0.34,0.87
	v0.78l-0.43,2.08l0.09,0.09l-0.09,0.08l-0.26,0.7l-0.17,1.38v0.52l-0.52,0.69l-0.52,1.74l0.08,1.12l0.35,0.87l0.35,0.43l-0.44,0.52
	l0.78,0.26l0.87-0.08l0.52-0.61l1.21,0.35l0.87-0.09l0.26,0.61l0.6-0.09l0.87,0.61l0.61,0.08l0.78,0.61l1.12,0.61l1.65,0.08
	l0.69,0.35l2.34,0.43l1.22,0.35l0.52-0.17l1.38,1.04l0.95,0.08l1.13,0.52l0.17-0.26l1.04-0.34l0.44-0.26l2.6-0.18l1.21,0.09
	l0.87-0.43l0.34,0.52l0.78,0.52l0.43-0.44l0.61,0.18l0.69-0.26l0.61-0.44l0.87,0.7l1.21,0.26l0.87-0.35l1.38,0.17l2.17-0.6
	l1.99-0.44l0.35-0.17l1.64,0.09l1.82-0.18l1.65,0.18l0.52-0.35l1.04,0.69l0.95,0.35l0.78-0.09l0.26,0.26l1.48,0.09l0.69,0.52h0.6
	l0.09,0.52l0.95-0.09l0.26-0.34l1.3-0.09l0.7-0.78l1.04-0.09l-0.35,0.52l0.09,0.52h0.52l0.08,0.52l0.52,0.17l0.96-0.51h0.52
	l0.34-0.7l0.96,0.26l0.52-0.95l0.6,0.43l0.95-0.17l0.87-0.35l0.52,0.18l1.91-0.26l1.56,0.17l0.43,0.17l0.87-0.43l0.34,0.26
	l1.04-0.26l1.13,0.26l0.87,0.43l0.26,0.7l1.55,0.86l0.26-0.26l0.78,0.87l0.96,0.43l1.47,0.52l0.87-0.26l0.52,0.26l-0.26,0.69
	l1.56,0.35l0.69,0.26l0.26,0.17l-0.26,1.04l0.35,0.96l0.69-0.35l0.35,0.43l-0.35,0.61l1.04,0.26l0.17,0.87l-0.26,1.21l-1.3,0.35
	h-0.95l-0.61,0.26l-0.86-0.87l-0.52,0.09l-1.04-0.96l-2-0.08l0.09,0.86l-0.17,0.35v0.78l0.34,0.52l0.7,0.09l0.08,0.77l0.35,0.78
	l0.09,0.7l-0.35,0.6l0.43,0.18l-1.04,1.56l-0.34,1.21l-0.09,0.78l-0.26,0.95l-0.17,1.22l-0.09,1.9l-0.69-0.08l-1.04-0.87l-0.52,0.26
	l0.17,0.43l-0.17,1.04l0.08,0.61l0.44,0.95l-0.96,0.26l-0.08,0.43l-0.52,0.87l-0.69,0.26h-0.7l-1.9-0.17l-0.26-0.35l-0.61,0.35
	l0.52,1.38l-0.09,0.52l-0.6-0.34l-0.09-0.52l-0.43-0.26l-1.04,0.69l0.6,2.17l-0.86,3.12l-0.09,0.95l-0.61,0.17l-0.26-0.34
	l-0.26-0.87l-0.86-0.69v-0.78l-0.78,0.34l-2.17-1.21l0.61,3.38l-0.69,0.09l-0.87-0.35l-0.78-0.61l-0.43-1.3l-0.61-0.17l0.35,0.87
	l-0.44,0.6l-0.26,0.96l0.18,0.77l-0.26,0.44l-0.7,0.26l-0.43,0.52l-1.47,0.08l-0.78-0.34l-0.7-0.09l-0.17-0.26h-0.78l-1.56-0.43
	l-1.04,0.08v0.87l0.61,0.95l-0.18,0.78l-0.51,0.7l0.17,0.95l-0.52-0.26l-1.65-0.43l-0.17,0.86l-0.52-0.26l-0.52,1.04l0.35,0.7
	l-0.96,0.08l0.18,0.52l-0.52,0.26l0.17,0.61l0.52,1.3l-0.52,0.95l-0.26,0.61l0.09,0.78l-0.26,0.95l-0.35-0.43h-1.21l-0.44,0.95
	l0.09,1.04l1.21-0.09l0.26,0.35l-0.08,1.04l-0.87-0.17l-0.43,0.86l0.17,1.13l0.78,0.61l0.09,0.86l0.34,0.09l-0.17,0.69l0.69,0.35
	v0.43l0.78,0.35l0.18,1.3l0.69,1.21v0.78l0.26,0.69l0.52,0.35l-0.35,1.13l0.52,0.17l0.18,0.43l-0.44,0.35l0.61,1.21l0.17,1.22
	l-0.08,1.82l0.26,0.26l0.43,1.55l0.78,1.22l0.69,0.43l0.61-0.26l-0.44-1.13l0.09-0.43l-0.6-1.47l-0.09-0.87l0.26-1.38l0.78-1.13
	l1.04,0.09l0.08,0.43l0.87,1.3l0.43,0.52l-0.17,1.13l0.61,0.95l-0.09,0.52l0.69,1.38l-0.08,0.87h0.52l-0.26,1.13l0.52,0.34v0.44
	l1.21,0.6l0.61,0.18l0.26-0.52l0.69-0.61l0.87-0.09l0.34-0.43l0.87,0.17l0.87-0.6l0.43-0.7h0.43l-0.26-0.86l1.39-0.35l0.34-0.52
	l-0.69-1.3l0.09-0.26l-0.44-1.82l-0.34-0.6l0.08-0.44l-0.43-0.43l-0.17-0.69l0.52-1.48l0.6-0.95l1.04-1.3l0.18-0.78l0.6-0.35
	l0.96-0.86l1.12,0.08v-0.69l1.04-1.12l-0.43-0.7l0.09-1.21v-0.78l-0.26-0.61v-0.69l-0.44-2.08l0.44-0.52l0.17-0.95l0.61-0.09
	l0.6,1.39l0.7,0.95l0.26-0.09l1.04,0.52l0.52-0.26l0.08-0.78h0.44l1.29-1.82l0.96-0.26v0.7l1.04,0.78l-0.09,1.04l0.43,0.17
	l0.52-1.04l-0.17-0.61l0.26-0.43l0.61-0.17l0.78,1.12v0.61l-0.44,0.95l0.61,0.61l-0.26,0.95l0.35,0.18l0.43,1.21l-0.17,0.61
	l0.34,0.86l0.44,2.51h0.43l0.17,0.7v0.86l0.7,0.96l-0.26,1.04l0.34,0.34l0.09,0.78l0.61,1.39l-1.48,0.17v1.3l0.35,1.22l-0.17,0.69
	l0.26,0.26l-0.26,0.6l0.6,0.87l0.18,0.78l-0.35,1.56v1.73l-0.17,0.52l0.6,0.26l0.26,0.52l0.44,0.09l0.34,0.78l0.87,0.52l0.17,0.52
	l-0.17,0.95l0.52,0.95l0.26,1.04l0.52,0.78l0.43,1.04l0.43,1.65l0.26,3.29l0.44,2.95l0.26,2.25l0.69,2.25l-0.09,1.04l0.35,1.04V576
	l0.26,1.56l0.26,0.35v0.78l-0.52,0.34l-0.78,0.18l1.04,2.34v0.86l0.17,1.65l0.78-0.26l0.61-0.87h0.61l0.34-0.86l-0.17-2l0.35,0.18
	l0.17-1.73l0.87,0.08l0.17,0.35l0.78,0.43l0.26,0.52l1.3,0.43l0.26,0.52l0.69,0.61h0.61l0.17,0.95l0.52,0.61l0.35,1.04l0.34,0.43
	l0.35-0.95l0.43-0.69l0.7-0.26l0.6,1.38l0.7-0.08v-0.87l-0.35-0.87l0.09-0.52l0.34-0.95l0.09-0.61l1.47,0.09l-0.17-0.78l-0.35-0.43
	l0.18-0.78l-0.26-0.95l0.95-0.52l0.69,0.34l0.52-0.08l0.35,0.78l0.95-0.18l0.18-0.52l-0.26-0.34l-0.35-1.13l1.3-0.17l0.52-0.35
	l-0.26-0.61v-1.82l-0.26-1.04l0.17-0.34l-0.26-1.04l0.09-0.44l-0.52-0.78l-0.87-0.26l-0.34-0.51l0.17-0.61l-0.26-0.52v-0.52
	l-0.52-0.17l0.09-0.7l0.43-0.6l0.43-0.44l-0.26-1.12l-0.6-0.52l0.08-0.44l-0.43-0.69v-0.69l-0.35-0.44l0.61-1.12l-0.43-2.17
	l0.52-0.17l0.17-1.47l0.52-1.04v-0.61h0.69l-0.6-1.65l0.17-0.52l-0.52-0.6l0.17-0.44l-0.08-1.12l0.26-0.44l0.78,0.44l0.43-0.35
	l0.69,0.09l0.44,0.34l0.34,0.78l0.61,0.52l1.47-0.08l0.87-0.87l0.34-0.95l0.44-0.44l0.17-1.21l0.87-0.78l-0.61-0.34l0.61-2.34
	l-0.44-1.04l0.09-1.13l-0.09-1.39l-0.43-0.69l1.47-1.04l-0.52-0.78v-0.69l0.35-1.39v-1.04l0.61-0.86l-0.18-1.13l0.26-0.43
	l-0.08-2.26l0.43-0.95l-0.78-0.95v-0.7l-0.35-1.3l0.09-1.29l-0.26-0.35l-0.09-1.99l0.09-1.39l-1.04-0.52l-0.35-1.04l-0.43-0.17
	l0.09-1.56l-0.09-0.7l0.09-0.52l-0.18-0.69l0.52-0.26l1.82,0.61l0.52,0.52l0.35,1.12l0.69,0.96l0.18,0.86l1.21,0.78l0.52-0.43
	l0.69-0.09l0.44-0.78l0.34,0.61l0.87-0.17l0.34-0.52l-0.17-0.61l1.04-0.17l2.6,0.52l0.69-0.18l0.35,0.7l0.52,0.52l0.43,1.12h0.96
	l0.78-0.17l0.86-0.61h0.78l0.95,0.18l0.52,0.52h1.39l0.78,0.52l0.17,0.6l1.39,0.18l0.52,0.86l0.26,0.78l0.52-0.43l0.61,0.17
	l0.17-1.21l0.09-1.3l0.78-0.26l-0.09-0.87l1.56-2.6v-0.6l0.43-0.87l-0.08-1.73l0.17-0.78l0.61-0.43v-0.7l0.34-1.21l0.52-0.52
	l0.43-1.21l-0.08-1.48l0.78-0.08l1.04-1.39l-0.61-0.52l0.95-0.43l0.26-0.61l0.18-1.21l-0.26-0.61l0.78-0.17l1.04-2.69l0.6-0.26
	l1.04-1.12l0.61-1.04l0.26-0.78v-1.39l1.21,0.17l0.61-0.34l0.17-0.7l0.44-0.69l-0.18-0.69l0.44-2.08l0.43-0.78l1.04-0.87l0.43-1.12
	l0.43-0.26l-0.52-0.87l0.35-0.78l0.35-0.26l0.43-0.78l0.26-1.3l-0.09-1.21v-1.13l-2.94-1.3l-0.52-0.52l-0.87-0.08l-0.43-0.7
	l0.43-1.64l-0.08-0.78l0.69-1.56l0.35-1.65l0.52-0.61l0.78-0.43l0.17-1.3l0.17-0.17l1.73-0.52l0.26-0.43l0.52,0.43l0.35-0.35
	l0.78-0.17l0.78-1.82l0.43-0.35l1.56-0.17l-0.52-0.69l0.96-0.87l0.43-1.65l0.26-0.34l1.21-0.96l0.78-1.12l0.7-0.09l0.52-0.69
	l-0.18-0.69l0.09-0.87l-0.35-0.35l-0.08-0.86l-0.52-0.78l0.08-0.96l0.26-0.69l0.87-0.87l0.6-0.08l0.87-0.61l0.35-0.61l0.69-0.69
	l0.69-0.87v-0.6l0.61-1.04l-0.61-0.52l-0.43,0.17l-0.69-0.17l-0.18-0.69l0.18-0.52l-0.35-0.87l0.35-1.3l0.43-0.43l-0.61-0.78
	l0.26-0.61l-0.26-0.61l0.26-0.52l-0.08-2.08l0.26-1.12l-0.96-0.44l0.18-0.69l-0.7-0.95h-0.6l0.09-0.52l1.03-1.47l0.52-0.61
	l-0.17-0.61l0.69-0.43l0.44-0.61v-1.3l0.86-0.78l0.7-0.17l0.95-1.3h0.61l0.34,0.78l0.96,0.26l1.3-0.69h0.51l1.22-0.7h0.52l1.21-1.73
	l0.61-0.17l0.52-0.87l0.34-1.04l0.96-0.86l0.52,0.08l0.34,0.35l1.04,0.17l0.61-0.95l0.17-0.95l0.44-0.18l0.6-0.86l0.96,0.78
	l0.77-0.09l0.7-0.61l-0.09-0.78l0.35-0.52l-0.09-0.6l0.61-0.87l1.04-1.04l0.69,0.17l0.52-0.17h0.61l2.34-1.56l0.69-1.38l1.13-1.48
	l0.52-1.38l1.47-0.7l0.43-0.43l0.43-0.09l1.48-0.69h0.52l0.43-0.35l0.61-0.17l0.52-0.52l1.3,0.17l0.34-0.52l0.61-0.26l1.13,0.52
	l0.43-0.43l0.87,0.17l1.21-0.52l1.12-0.08l0.87,0.17l0.87,0.35l0.95-0.96l1.13-0.6l-0.09-0.44l0.69-0.52l0.78,0.18l0.7-0.18
	l0.69,0.26l0.52-0.52l0.87,0.52h0.95l0.87,0.35l0.43,0.87l0.6,0.6l0.35,0.18l0.17,0.86l0.35,0.35l0.52,0.09l0.17,0.95l-0.78,0.61
	l0.09,0.69l1.56,0.78l1.04,0.09l0.87,0.17l0.43,0.43l0.95,0.44l0.96,1.04h0.43l0.95-0.35l0.61,0.61h0.43l0.35-0.78l0.43-0.35
	l-0.08-0.61l-0.52-0.78l-0.7-0.26l-0.34-0.78l-0.61-0.43v-0.87l-0.43-0.17l-1.13-1.21l-0.09-0.61l-1.04-0.69l-0.17-0.87l-0.43-0.26
	l-0.44-0.78l0.18-0.35l-0.26-0.6l-0.78-0.43l-0.18-0.78l-0.69-0.35l0.09-0.87l0.69-1.38l-0.61-0.96l-0.08-1.04l-0.44-0.17
	l-0.08-0.87l0.69-0.34l0.26-0.87l0.87-0.61l0.6,0.09l0.18-0.61l0.6-0.69l0.35-0.95l0.61-0.43l0.95-0.26l0.78,0.34l0.26-0.86
	l-0.09-0.61l0.7-0.17l0.34-0.52l0.7-0.26l1.29-1.39l0.96-0.87l0.6-0.69l1.56-0.69l0.44,0.6l-0.09,0.78l0.69-0.17l0.61,0.35
	l0.69-0.44l-0.26-0.69l0.26-0.43l-0.34-0.44l0.08-1.38L1500.06,387.04z"/>
</svg>
